<?xml version="1.0" encoding="us-ascii" standalone="no"?><svg xmlns="http://www.w3.org/2000/svg" xmlns:xlink="http://www.w3.org/1999/xlink" contentStyleType="text/css" height="941px" preserveAspectRatio="none" style="width:1424px;height:941px;background:#FFFFFF;" version="1.1" viewBox="0 0 1424 941" width="1424px" zoomAndPan="magnify"><defs/><g><!--class Shape--><g id="elem_Shape"><rect codeLine="1" fill="#F1F1F1" height="178.375" id="Shape" rx="2.5" ry="2.5" style="stroke:#181818;stroke-width:0.5;" width="295" x="871.5" y="7"/><ellipse cx="992.25" cy="23" fill="#A9DCDF" rx="11" ry="11" style="stroke:#181818;stroke-width:1.0;"/><path d="M994.3281,24.8125 L994.7188,25.7969 L994.3281,25.7969 C993.875,25.7969 993.7656,25.8125 993.6094,25.9219 C993.3594,26.0781 993.2031,26.3594 993.2031,26.6563 C993.2031,26.9219 993.3438,27.1719 993.5625,27.3281 C993.7031,27.4531 993.9063,27.5 994.3281,27.5 L996.6875,27.5 C997.0469,27.5 997.2656,27.4688 997.4063,27.375 C997.6563,27.2344 997.8125,26.9375 997.8125,26.6563 C997.8125,26.375 997.6719,26.125 997.4531,25.9688 C997.2813,25.8281 997.125,25.7969 996.6563,25.7969 L993.2656,17.5938 L989.5938,17.5938 C989.1406,17.5938 989.0156,17.6094 988.8594,17.7031 C988.6094,17.875 988.4531,18.1563 988.4531,18.4375 C988.4531,18.7188 988.5938,18.9688 988.8125,19.1406 C988.9844,19.25 989.1563,19.2813 989.5938,19.2813 L990.6719,19.2813 L988.0313,25.7969 C987.6094,25.7969 987.4531,25.8125 987.2969,25.9219 C987.0469,26.0781 986.8906,26.3594 986.8906,26.6563 C986.8906,27.2188 987.2656,27.5 988.0156,27.5 L990.2813,27.5 C990.6406,27.5 990.8594,27.4688 990.9844,27.375 C991.25,27.2344 991.3906,26.9375 991.3906,26.6563 C991.3906,26.375 991.2656,26.125 991.0469,25.9531 C990.875,25.8281 990.7344,25.7969 990.2813,25.7969 L989.8906,25.7969 L990.2813,24.8125 L994.3281,24.8125 Z M993.625,23.1094 L990.9531,23.1094 L992.2969,19.8438 L993.625,23.1094 Z " fill="#000000"/><text fill="#000000" font-family="sans-serif" font-size="14" font-style="italic" lengthAdjust="spacing" textLength="45" x="1012.75" y="27.8467">Shape</text><line style="stroke:#181818;stroke-width:0.5;" x1="872.5" x2="1165.5" y1="39" y2="39"/><rect fill="none" height="6" style="stroke:#C82930;stroke-width:1.0;" width="6" x="879.5" y="49.6484"/><text fill="#000000" font-family="sans-serif" font-size="14" lengthAdjust="spacing" textLength="89" x="891.5" y="55.9951">coord_x : int</text><rect fill="none" height="6" style="stroke:#C82930;stroke-width:1.0;" width="6" x="879.5" y="65.9453"/><text fill="#000000" font-family="sans-serif" font-size="14" lengthAdjust="spacing" textLength="89" x="891.5" y="72.292">coord_y : int</text><line style="stroke:#181818;stroke-width:0.5;" x1="872.5" x2="1165.5" y1="79.5938" y2="79.5938"/><ellipse cx="882.5" cy="93.2422" fill="#84BE84" rx="3" ry="3" style="stroke:#038048;stroke-width:1.0;"/><text fill="#000000" font-family="sans-serif" font-size="14" lengthAdjust="spacing" textLength="55" x="891.5" y="96.5889">Shape()</text><ellipse cx="882.5" cy="109.5391" fill="#84BE84" rx="3" ry="3" style="stroke:#038048;stroke-width:1.0;"/><text fill="#000000" font-family="sans-serif" font-size="14" lengthAdjust="spacing" textLength="191" x="891.5" y="112.8857">Shape(const int, const int)</text><text fill="#000000" font-family="sans-serif" font-size="14" lengthAdjust="spacing" textLength="4" x="891.5" y="129.1826">&#160;</text><ellipse cx="882.5" cy="142.1328" fill="#84BE84" rx="3" ry="3" style="stroke:#038048;stroke-width:1.0;"/><text fill="#000000" font-family="sans-serif" font-size="14" lengthAdjust="spacing" textLength="201" x="891.5" y="145.4795">GetCoord(int &amp;, int &amp;) : void</text><ellipse cx="882.5" cy="158.4297" fill="#84BE84" rx="3" ry="3" style="stroke:#038048;stroke-width:1.0;"/><text fill="#000000" font-family="sans-serif" font-size="14" lengthAdjust="spacing" textLength="257" x="891.5" y="161.7764">SetCoord(const int, const int) : void</text><ellipse cx="882.5" cy="174.7266" fill="#84BE84" rx="3" ry="3" style="stroke:#038048;stroke-width:1.0;"/><text fill="#000000" font-family="sans-serif" font-size="14" lengthAdjust="spacing" textLength="269" x="891.5" y="178.0732">virtual GetSquare() const = 0 : double</text></g><!--class Rectangle--><g id="elem_Rectangle"><rect codeLine="13" fill="#F1F1F1" height="129.4844" id="Rectangle" rx="2.5" ry="2.5" style="stroke:#181818;stroke-width:0.5;" width="536" x="441" y="246"/><ellipse cx="668.25" cy="262" fill="#ADD1B2" rx="11" ry="11" style="stroke:#181818;stroke-width:1.0;"/><path d="M670.5938,257.6719 C669.6563,257.2344 669.0625,257.0938 668.1875,257.0938 C665.5625,257.0938 663.5625,259.1719 663.5625,261.8906 L663.5625,263.0156 C663.5625,265.5938 665.6719,267.4844 668.5625,267.4844 C669.7813,267.4844 670.9375,267.1875 671.6875,266.6406 C672.2656,266.2344 672.5938,265.7813 672.5938,265.3906 C672.5938,264.9375 672.2031,264.5469 671.7344,264.5469 C671.5156,264.5469 671.3125,264.625 671.125,264.8125 C670.6719,265.2969 670.6719,265.2969 670.4844,265.3906 C670.0625,265.6563 669.375,265.7813 668.6094,265.7813 C666.5625,265.7813 665.2656,264.6875 665.2656,262.9844 L665.2656,261.8906 C665.2656,260.1094 666.5156,258.7969 668.25,258.7969 C668.8281,258.7969 669.4375,258.9531 669.9063,259.2031 C670.3906,259.4844 670.5625,259.7031 670.6563,260.1094 C670.7188,260.5156 670.75,260.6406 670.8906,260.7656 C671.0313,260.9063 671.2656,261.0156 671.4844,261.0156 C671.75,261.0156 672.0156,260.875 672.1875,260.6563 C672.2969,260.5 672.3281,260.3125 672.3281,259.8906 L672.3281,258.4688 C672.3281,258.0313 672.3125,257.9063 672.2188,257.75 C672.0625,257.4844 671.7813,257.3438 671.4844,257.3438 C671.1875,257.3438 670.9844,257.4375 670.7656,257.75 L670.5938,257.6719 Z " fill="#000000"/><text fill="#000000" font-family="sans-serif" font-size="14" lengthAdjust="spacing" textLength="73" x="688.75" y="266.8467">Rectangle</text><line style="stroke:#181818;stroke-width:0.5;" x1="442" x2="976" y1="278" y2="278"/><rect fill="none" height="6" style="stroke:#C82930;stroke-width:1.0;" width="6" x="449" y="288.6484"/><text fill="#000000" font-family="sans-serif" font-size="14" lengthAdjust="spacing" textLength="73" x="461" y="294.9951">width : int</text><rect fill="none" height="6" style="stroke:#C82930;stroke-width:1.0;" width="6" x="449" y="304.9453"/><text fill="#000000" font-family="sans-serif" font-size="14" lengthAdjust="spacing" textLength="80" x="461" y="311.292">height : int</text><line style="stroke:#181818;stroke-width:0.5;" x1="442" x2="976" y1="318.5938" y2="318.5938"/><ellipse cx="452" cy="332.2422" fill="#84BE84" rx="3" ry="3" style="stroke:#038048;stroke-width:1.0;"/><text fill="#000000" font-family="sans-serif" font-size="14" lengthAdjust="spacing" textLength="83" x="461" y="335.5889">Rectangle()</text><ellipse cx="452" cy="348.5391" fill="#84BE84" rx="3" ry="3" style="stroke:#038048;stroke-width:1.0;"/><text fill="#000000" font-family="sans-serif" font-size="14" lengthAdjust="spacing" textLength="510" x="461" y="351.8857">Rectangle(const int _x, const int _y, const int _width, const int _height)</text><ellipse cx="452" cy="364.8359" fill="#84BE84" rx="3" ry="3" style="stroke:#038048;stroke-width:1.0;"/><text fill="#000000" font-family="sans-serif" font-size="14" lengthAdjust="spacing" textLength="212" x="461" y="368.1826">GetSquare() override : double</text></g><!--class Circle--><g id="elem_Circle"><rect codeLine="22" fill="#F1F1F1" height="113.1875" id="Circle" rx="2.5" ry="2.5" style="stroke:#181818;stroke-width:0.5;" width="405" x="1012.5" y="254"/><ellipse cx="1190.25" cy="270" fill="#ADD1B2" rx="11" ry="11" style="stroke:#181818;stroke-width:1.0;"/><path d="M1192.5938,265.6719 C1191.6563,265.2344 1191.0625,265.0938 1190.1875,265.0938 C1187.5625,265.0938 1185.5625,267.1719 1185.5625,269.8906 L1185.5625,271.0156 C1185.5625,273.5938 1187.6719,275.4844 1190.5625,275.4844 C1191.7813,275.4844 1192.9375,275.1875 1193.6875,274.6406 C1194.2656,274.2344 1194.5938,273.7813 1194.5938,273.3906 C1194.5938,272.9375 1194.2031,272.5469 1193.7344,272.5469 C1193.5156,272.5469 1193.3125,272.625 1193.125,272.8125 C1192.6719,273.2969 1192.6719,273.2969 1192.4844,273.3906 C1192.0625,273.6563 1191.375,273.7813 1190.6094,273.7813 C1188.5625,273.7813 1187.2656,272.6875 1187.2656,270.9844 L1187.2656,269.8906 C1187.2656,268.1094 1188.5156,266.7969 1190.25,266.7969 C1190.8281,266.7969 1191.4375,266.9531 1191.9063,267.2031 C1192.3906,267.4844 1192.5625,267.7031 1192.6563,268.1094 C1192.7188,268.5156 1192.75,268.6406 1192.8906,268.7656 C1193.0313,268.9063 1193.2656,269.0156 1193.4844,269.0156 C1193.75,269.0156 1194.0156,268.875 1194.1875,268.6563 C1194.2969,268.5 1194.3281,268.3125 1194.3281,267.8906 L1194.3281,266.4688 C1194.3281,266.0313 1194.3125,265.9063 1194.2188,265.75 C1194.0625,265.4844 1193.7813,265.3438 1193.4844,265.3438 C1193.1875,265.3438 1192.9844,265.4375 1192.7656,265.75 L1192.5938,265.6719 Z " fill="#000000"/><text fill="#000000" font-family="sans-serif" font-size="14" lengthAdjust="spacing" textLength="41" x="1210.75" y="274.8467">Circle</text><line style="stroke:#181818;stroke-width:0.5;" x1="1013.5" x2="1416.5" y1="286" y2="286"/><rect fill="none" height="6" style="stroke:#C82930;stroke-width:1.0;" width="6" x="1020.5" y="296.6484"/><text fill="#000000" font-family="sans-serif" font-size="14" lengthAdjust="spacing" textLength="100" x="1032.5" y="302.9951">radius: double</text><line style="stroke:#181818;stroke-width:0.5;" x1="1013.5" x2="1416.5" y1="310.2969" y2="310.2969"/><ellipse cx="1023.5" cy="323.9453" fill="#84BE84" rx="3" ry="3" style="stroke:#038048;stroke-width:1.0;"/><text fill="#000000" font-family="sans-serif" font-size="14" lengthAdjust="spacing" textLength="51" x="1032.5" y="327.292">Circle()</text><ellipse cx="1023.5" cy="340.2422" fill="#84BE84" rx="3" ry="3" style="stroke:#038048;stroke-width:1.0;"/><text fill="#000000" font-family="sans-serif" font-size="14" lengthAdjust="spacing" textLength="379" x="1032.5" y="343.5889">Circle(const int _x, const int _y, const double _radius)</text><ellipse cx="1023.5" cy="356.5391" fill="#84BE84" rx="3" ry="3" style="stroke:#038048;stroke-width:1.0;"/><text fill="#000000" font-family="sans-serif" font-size="14" lengthAdjust="spacing" textLength="212" x="1032.5" y="359.8857">GetSquare() override : double</text></g><!--class Element--><g id="elem_Element"><rect codeLine="30" fill="#F1F1F1" height="227.2656" id="Element" rx="2.5" ry="2.5" style="stroke:#181818;stroke-width:0.5;" width="283" x="703.5" y="436"/><ellipse cx="810.25" cy="452" fill="#ADD1B2" rx="11" ry="11" style="stroke:#181818;stroke-width:1.0;"/><path d="M812.5938,447.6719 C811.6563,447.2344 811.0625,447.0938 810.1875,447.0938 C807.5625,447.0938 805.5625,449.1719 805.5625,451.8906 L805.5625,453.0156 C805.5625,455.5938 807.6719,457.4844 810.5625,457.4844 C811.7813,457.4844 812.9375,457.1875 813.6875,456.6406 C814.2656,456.2344 814.5938,455.7813 814.5938,455.3906 C814.5938,454.9375 814.2031,454.5469 813.7344,454.5469 C813.5156,454.5469 813.3125,454.625 813.125,454.8125 C812.6719,455.2969 812.6719,455.2969 812.4844,455.3906 C812.0625,455.6563 811.375,455.7813 810.6094,455.7813 C808.5625,455.7813 807.2656,454.6875 807.2656,452.9844 L807.2656,451.8906 C807.2656,450.1094 808.5156,448.7969 810.25,448.7969 C810.8281,448.7969 811.4375,448.9531 811.9063,449.2031 C812.3906,449.4844 812.5625,449.7031 812.6563,450.1094 C812.7188,450.5156 812.75,450.6406 812.8906,450.7656 C813.0313,450.9063 813.2656,451.0156 813.4844,451.0156 C813.75,451.0156 814.0156,450.875 814.1875,450.6563 C814.2969,450.5 814.3281,450.3125 814.3281,449.8906 L814.3281,448.4688 C814.3281,448.0313 814.3125,447.9063 814.2188,447.75 C814.0625,447.4844 813.7813,447.3438 813.4844,447.3438 C813.1875,447.3438 812.9844,447.4375 812.7656,447.75 L812.5938,447.6719 Z " fill="#000000"/><text fill="#000000" font-family="sans-serif" font-size="14" lengthAdjust="spacing" textLength="61" x="830.75" y="456.8467">Element</text><line style="stroke:#181818;stroke-width:0.5;" x1="704.5" x2="985.5" y1="468" y2="468"/><rect fill="none" height="6" style="stroke:#C82930;stroke-width:1.0;" width="6" x="711.5" y="478.6484"/><text fill="#000000" font-family="sans-serif" font-size="14" lengthAdjust="spacing" textLength="67" x="723.5" y="484.9951">type : int</text><rect fill="none" height="6" style="stroke:#C82930;stroke-width:1.0;" width="6" x="711.5" y="494.9453"/><text fill="#000000" font-family="sans-serif" font-size="14" lengthAdjust="spacing" textLength="123" x="723.5" y="501.292">shared_ptr : data</text><line style="stroke:#181818;stroke-width:0.5;" x1="704.5" x2="985.5" y1="508.5938" y2="508.5938"/><ellipse cx="714.5" cy="522.2422" fill="#84BE84" rx="3" ry="3" style="stroke:#038048;stroke-width:1.0;"/><text fill="#000000" font-family="sans-serif" font-size="14" lengthAdjust="spacing" textLength="137" x="723.5" y="525.5889">Element() = delete</text><ellipse cx="714.5" cy="538.5391" fill="#84BE84" rx="3" ry="3" style="stroke:#038048;stroke-width:1.0;"/><text fill="#000000" font-family="sans-serif" font-size="14" lengthAdjust="spacing" textLength="171" x="723.5" y="541.8857">Element(Circle &amp;&amp;) : int</text><ellipse cx="714.5" cy="554.8359" fill="#84BE84" rx="3" ry="3" style="stroke:#038048;stroke-width:1.0;"/><text fill="#000000" font-family="sans-serif" font-size="14" lengthAdjust="spacing" textLength="203" x="723.5" y="558.1826">Element(Rectangle &amp;&amp;) : int</text><polygon fill="#4177AF" points="714.5,567.1328,710.5,573.1328,718.5,573.1328" style="stroke:#1963A0;stroke-width:1.0;"/><text fill="#000000" font-family="sans-serif" font-size="14" lengthAdjust="spacing" textLength="71" x="723.5" y="574.4795">Element()</text><text fill="#000000" font-family="sans-serif" font-size="14" lengthAdjust="spacing" textLength="4" x="723.5" y="590.7764">&#160;</text><ellipse cx="714.5" cy="603.7266" fill="#84BE84" rx="3" ry="3" style="stroke:#038048;stroke-width:1.0;"/><text fill="#000000" font-family="sans-serif" font-size="14" lengthAdjust="spacing" textLength="106" x="723.5" y="607.0732">GetType() : int</text><ellipse cx="714.5" cy="620.0234" fill="#84BE84" rx="3" ry="3" style="stroke:#038048;stroke-width:1.0;"/><text fill="#000000" font-family="sans-serif" font-size="14" lengthAdjust="spacing" textLength="201" x="723.5" y="623.3701">GetCoord(int &amp;, int &amp;) : void</text><ellipse cx="714.5" cy="636.3203" fill="#84BE84" rx="3" ry="3" style="stroke:#038048;stroke-width:1.0;"/><text fill="#000000" font-family="sans-serif" font-size="14" lengthAdjust="spacing" textLength="257" x="723.5" y="639.667">SetCoord(const int, const int) : void</text><ellipse cx="714.5" cy="652.6172" fill="#84BE84" rx="3" ry="3" style="stroke:#038048;stroke-width:1.0;"/><text fill="#000000" font-family="sans-serif" font-size="14" lengthAdjust="spacing" textLength="148" x="723.5" y="655.9639">GetSquare() : double</text></g><!--class Document--><g id="elem_Document"><rect codeLine="45" fill="#F1F1F1" height="194.6719" id="Document" rx="2.5" ry="2.5" style="stroke:#181818;stroke-width:0.5;" width="417" x="636.5" y="740"/><ellipse cx="803.25" cy="756" fill="#ADD1B2" rx="11" ry="11" style="stroke:#181818;stroke-width:1.0;"/><path d="M805.5938,751.6719 C804.6563,751.2344 804.0625,751.0938 803.1875,751.0938 C800.5625,751.0938 798.5625,753.1719 798.5625,755.8906 L798.5625,757.0156 C798.5625,759.5938 800.6719,761.4844 803.5625,761.4844 C804.7813,761.4844 805.9375,761.1875 806.6875,760.6406 C807.2656,760.2344 807.5938,759.7813 807.5938,759.3906 C807.5938,758.9375 807.2031,758.5469 806.7344,758.5469 C806.5156,758.5469 806.3125,758.625 806.125,758.8125 C805.6719,759.2969 805.6719,759.2969 805.4844,759.3906 C805.0625,759.6563 804.375,759.7813 803.6094,759.7813 C801.5625,759.7813 800.2656,758.6875 800.2656,756.9844 L800.2656,755.8906 C800.2656,754.1094 801.5156,752.7969 803.25,752.7969 C803.8281,752.7969 804.4375,752.9531 804.9063,753.2031 C805.3906,753.4844 805.5625,753.7031 805.6563,754.1094 C805.7188,754.5156 805.75,754.6406 805.8906,754.7656 C806.0313,754.9063 806.2656,755.0156 806.4844,755.0156 C806.75,755.0156 807.0156,754.875 807.1875,754.6563 C807.2969,754.5 807.3281,754.3125 807.3281,753.8906 L807.3281,752.4688 C807.3281,752.0313 807.3125,751.9063 807.2188,751.75 C807.0625,751.4844 806.7813,751.3438 806.4844,751.3438 C806.1875,751.3438 805.9844,751.4375 805.7656,751.75 L805.5938,751.6719 Z " fill="#000000"/><text fill="#000000" font-family="sans-serif" font-size="14" lengthAdjust="spacing" textLength="75" x="823.75" y="760.8467">Document</text><line style="stroke:#181818;stroke-width:0.5;" x1="637.5" x2="1052.5" y1="772" y2="772"/><rect fill="none" height="6" style="stroke:#C82930;stroke-width:1.0;" width="6" x="644.5" y="782.6484"/><text fill="#000000" font-family="sans-serif" font-size="14" lengthAdjust="spacing" textLength="391" x="656.5" y="788.9951">ObjectsContainer : AssociateContainer&lt;int, Element&gt;</text><line style="stroke:#181818;stroke-width:0.5;" x1="637.5" x2="1052.5" y1="796.2969" y2="796.2969"/><ellipse cx="647.5" cy="809.9453" fill="#84BE84" rx="3" ry="3" style="stroke:#038048;stroke-width:1.0;"/><text fill="#000000" font-family="sans-serif" font-size="14" lengthAdjust="spacing" textLength="85" x="656.5" y="813.292">Document()</text><polygon fill="#4177AF" points="647.5,822.2422,643.5,828.2422,651.5,828.2422" style="stroke:#1963A0;stroke-width:1.0;"/><text fill="#000000" font-family="sans-serif" font-size="14" lengthAdjust="spacing" textLength="85" x="656.5" y="829.5889">Document()</text><text fill="#000000" font-family="sans-serif" font-size="14" lengthAdjust="spacing" textLength="4" x="656.5" y="845.8857">&#160;</text><ellipse cx="647.5" cy="858.8359" fill="#84BE84" rx="3" ry="3" style="stroke:#038048;stroke-width:1.0;"/><text fill="#000000" font-family="sans-serif" font-size="14" lengthAdjust="spacing" textLength="240" x="656.5" y="862.1826">CreateElement(Element &amp;&amp;) : int</text><ellipse cx="647.5" cy="875.1328" fill="#84BE84" rx="3" ry="3" style="stroke:#038048;stroke-width:1.0;"/><text fill="#000000" font-family="sans-serif" font-size="14" lengthAdjust="spacing" textLength="234" x="656.5" y="878.4795">DeleteElement(const int id) : int</text><ellipse cx="647.5" cy="891.4297" fill="#84BE84" rx="3" ry="3" style="stroke:#038048;stroke-width:1.0;"/><text fill="#000000" font-family="sans-serif" font-size="14" lengthAdjust="spacing" textLength="257" x="656.5" y="894.7764">Export(const string &amp;path_dst) : int</text><ellipse cx="647.5" cy="907.7266" fill="#84BE84" rx="3" ry="3" style="stroke:#038048;stroke-width:1.0;"/><text fill="#000000" font-family="sans-serif" font-size="14" lengthAdjust="spacing" textLength="93" x="656.5" y="911.0732">Import() : int</text><ellipse cx="647.5" cy="924.0234" fill="#84BE84" rx="3" ry="3" style="stroke:#038048;stroke-width:1.0;"/><text fill="#000000" font-family="sans-serif" font-size="14" lengthAdjust="spacing" textLength="88" x="656.5" y="927.3701">Print() : void</text></g><!--class DocumentView--><g id="elem_DocumentView"><rect codeLine="58" fill="#F1F1F1" height="64.2969" id="DocumentView" rx="2.5" ry="2.5" style="stroke:#181818;stroke-width:0.5;" width="192" x="361" y="805.5"/><ellipse cx="398.95" cy="821.5" fill="#ADD1B2" rx="11" ry="11" style="stroke:#181818;stroke-width:1.0;"/><path d="M401.2938,817.1719 C400.3563,816.7344 399.7625,816.5938 398.8875,816.5938 C396.2625,816.5938 394.2625,818.6719 394.2625,821.3906 L394.2625,822.5156 C394.2625,825.0938 396.3719,826.9844 399.2625,826.9844 C400.4813,826.9844 401.6375,826.6875 402.3875,826.1406 C402.9656,825.7344 403.2938,825.2813 403.2938,824.8906 C403.2938,824.4375 402.9031,824.0469 402.4344,824.0469 C402.2156,824.0469 402.0125,824.125 401.825,824.3125 C401.3719,824.7969 401.3719,824.7969 401.1844,824.8906 C400.7625,825.1563 400.075,825.2813 399.3094,825.2813 C397.2625,825.2813 395.9656,824.1875 395.9656,822.4844 L395.9656,821.3906 C395.9656,819.6094 397.2156,818.2969 398.95,818.2969 C399.5281,818.2969 400.1375,818.4531 400.6063,818.7031 C401.0906,818.9844 401.2625,819.2031 401.3563,819.6094 C401.4188,820.0156 401.45,820.1406 401.5906,820.2656 C401.7313,820.4063 401.9656,820.5156 402.1844,820.5156 C402.45,820.5156 402.7156,820.375 402.8875,820.1563 C402.9969,820 403.0281,819.8125 403.0281,819.3906 L403.0281,817.9688 C403.0281,817.5313 403.0125,817.4063 402.9188,817.25 C402.7625,816.9844 402.4813,816.8438 402.1844,816.8438 C401.8875,816.8438 401.6844,816.9375 401.4656,817.25 L401.2938,817.1719 Z " fill="#000000"/><text fill="#000000" font-family="sans-serif" font-size="14" lengthAdjust="spacing" textLength="109" x="418.05" y="826.3467">DocumentView</text><line style="stroke:#181818;stroke-width:0.5;" x1="362" x2="552" y1="837.5" y2="837.5"/><line style="stroke:#181818;stroke-width:0.5;" x1="362" x2="552" y1="845.5" y2="845.5"/><ellipse cx="372" cy="859.1484" fill="#84BE84" rx="3" ry="3" style="stroke:#038048;stroke-width:1.0;"/><text fill="#000000" font-family="sans-serif" font-size="14" lengthAdjust="spacing" textLength="166" x="381" y="862.4951">ShowDocument() : void</text></g><!--class DocumentController--><g id="elem_DocumentController"><rect codeLine="62" fill="#F1F1F1" height="194.6719" id="DocumentController" rx="2.5" ry="2.5" style="stroke:#181818;stroke-width:0.5;" width="274" x="7" y="740"/><ellipse cx="65.75" cy="756" fill="#ADD1B2" rx="11" ry="11" style="stroke:#181818;stroke-width:1.0;"/><path d="M68.0938,751.6719 C67.1563,751.2344 66.5625,751.0938 65.6875,751.0938 C63.0625,751.0938 61.0625,753.1719 61.0625,755.8906 L61.0625,757.0156 C61.0625,759.5938 63.1719,761.4844 66.0625,761.4844 C67.2813,761.4844 68.4375,761.1875 69.1875,760.6406 C69.7656,760.2344 70.0938,759.7813 70.0938,759.3906 C70.0938,758.9375 69.7031,758.5469 69.2344,758.5469 C69.0156,758.5469 68.8125,758.625 68.625,758.8125 C68.1719,759.2969 68.1719,759.2969 67.9844,759.3906 C67.5625,759.6563 66.875,759.7813 66.1094,759.7813 C64.0625,759.7813 62.7656,758.6875 62.7656,756.9844 L62.7656,755.8906 C62.7656,754.1094 64.0156,752.7969 65.75,752.7969 C66.3281,752.7969 66.9375,752.9531 67.4063,753.2031 C67.8906,753.4844 68.0625,753.7031 68.1563,754.1094 C68.2188,754.5156 68.25,754.6406 68.3906,754.7656 C68.5313,754.9063 68.7656,755.0156 68.9844,755.0156 C69.25,755.0156 69.5156,754.875 69.6875,754.6563 C69.7969,754.5 69.8281,754.3125 69.8281,753.8906 L69.8281,752.4688 C69.8281,752.0313 69.8125,751.9063 69.7188,751.75 C69.5625,751.4844 69.2813,751.3438 68.9844,751.3438 C68.6875,751.3438 68.4844,751.4375 68.2656,751.75 L68.0938,751.6719 Z " fill="#000000"/><text fill="#000000" font-family="sans-serif" font-size="14" lengthAdjust="spacing" textLength="148" x="86.25" y="760.8467">DocumentController</text><line style="stroke:#181818;stroke-width:0.5;" x1="8" x2="280" y1="772" y2="772"/><rect fill="none" height="6" style="stroke:#C82930;stroke-width:1.0;" width="6" x="15" y="782.6484"/><text fill="#000000" font-family="sans-serif" font-size="14" lengthAdjust="spacing" textLength="68" x="27" y="788.9951">view : ptr</text><rect fill="none" height="6" style="stroke:#C82930;stroke-width:1.0;" width="6" x="15" y="798.9453"/><text fill="#000000" font-family="sans-serif" font-size="14" lengthAdjust="spacing" textLength="62" x="27" y="805.292">doc : ptr</text><line style="stroke:#181818;stroke-width:0.5;" x1="8" x2="280" y1="812.5938" y2="812.5938"/><ellipse cx="18" cy="826.2422" fill="#84BE84" rx="3" ry="3" style="stroke:#038048;stroke-width:1.0;"/><text fill="#000000" font-family="sans-serif" font-size="14" lengthAdjust="spacing" textLength="158" x="27" y="829.5889">DocumentController()</text><ellipse cx="18" cy="842.5391" fill="#84BE84" rx="3" ry="3" style="stroke:#038048;stroke-width:1.0;"/><text fill="#000000" font-family="sans-serif" font-size="14" lengthAdjust="spacing" textLength="177" x="27" y="845.8857">CreateDocument() : void</text><ellipse cx="18" cy="858.8359" fill="#84BE84" rx="3" ry="3" style="stroke:#038048;stroke-width:1.0;"/><text fill="#000000" font-family="sans-serif" font-size="14" lengthAdjust="spacing" textLength="248" x="27" y="862.1826">ImportDocument(string path) : int</text><ellipse cx="18" cy="875.1328" fill="#84BE84" rx="3" ry="3" style="stroke:#038048;stroke-width:1.0;"/><text fill="#000000" font-family="sans-serif" font-size="14" lengthAdjust="spacing" textLength="247" x="27" y="878.4795">ExportDocument(string path) : int</text><ellipse cx="18" cy="891.4297" fill="#84BE84" rx="3" ry="3" style="stroke:#038048;stroke-width:1.0;"/><text fill="#000000" font-family="sans-serif" font-size="14" lengthAdjust="spacing" textLength="241" x="27" y="894.7764">CreateElement(Element obj) : int</text><ellipse cx="18" cy="907.7266" fill="#84BE84" rx="3" ry="3" style="stroke:#038048;stroke-width:1.0;"/><text fill="#000000" font-family="sans-serif" font-size="14" lengthAdjust="spacing" textLength="190" x="27" y="911.0732">DeleteElement(int di) : int</text><ellipse cx="18" cy="924.0234" fill="#84BE84" rx="3" ry="3" style="stroke:#038048;stroke-width:1.0;"/><text fill="#000000" font-family="sans-serif" font-size="14" lengthAdjust="spacing" textLength="139" x="27" y="927.3701">UpdateView() : void</text></g><!--reverse link Shape to Rectangle--><g id="link_Shape_Rectangle"><path codeLine="74" d="M873.46,196.765 C849.129,213.444 824.486,230.336 801.941,245.79 " fill="none" id="Shape-backto-Rectangle" style="stroke:#181818;stroke-width:1.0;"/><polygon fill="none" points="869.771,190.807,890.225,185.273,877.687,202.355,869.771,190.807" style="stroke:#181818;stroke-width:1.0;"/></g><!--reverse link Shape to Circle--><g id="link_Shape_Circle"><path codeLine="75" d="M1114.1,200.108 C1131.25,218.695 1148.51,237.41 1163.79,253.976 " fill="none" id="Shape-backto-Circle" style="stroke:#181818;stroke-width:1.0;"/><polygon fill="none" points="1108.83,204.72,1100.42,185.273,1119.12,195.228,1108.83,204.72" style="stroke:#181818;stroke-width:1.0;"/></g><!--reverse link Rectangle to Element--><g id="link_Rectangle_Element"><path codeLine="76" d="M752.17,386.73 C761.15,402.38 770.801,419.197 780.362,435.859 " fill="none" id="Rectangle-backto-Element" style="stroke:#181818;stroke-width:1.0;"/><polygon fill="#181818" points="745.446,375.012,744.9634,382.2069,751.4193,385.4197,751.9019,378.2248,745.446,375.012" style="stroke:#181818;stroke-width:1.0;"/><text fill="#000000" font-family="sans-serif" font-size="13" lengthAdjust="spacing" textLength="37" x="710.521" y="395.385">many</text><text fill="#000000" font-family="sans-serif" font-size="13" lengthAdjust="spacing" textLength="8" x="767.7504" y="424.7823">1</text></g><!--reverse link Circle to Element--><g id="link_Circle_Element"><path codeLine="77" d="M1117.17,374.163 C1077.2,399.769 1030.18,429.885 986.575,457.815 " fill="none" id="Circle-backto-Element" style="stroke:#181818;stroke-width:1.0;"/><polygon fill="#181818" points="1128.25,367.066,1121.0401,366.9355,1118.1465,373.5406,1125.3564,373.6711,1128.25,367.066" style="stroke:#181818;stroke-width:1.0;"/><text fill="#000000" font-family="sans-serif" font-size="13" lengthAdjust="spacing" textLength="37" x="1077.7648" y="387.3378">many</text><text fill="#000000" font-family="sans-serif" font-size="13" lengthAdjust="spacing" textLength="8" x="994.5361" y="449.4541">1</text></g><!--reverse link Element to Document--><g id="link_Element_Document"><path codeLine="78" d="M845,676.282 C845,697.55 845,719.333 845,739.712 " fill="none" id="Element-backto-Document" style="stroke:#181818;stroke-width:1.0;"/><polygon fill="#181818" points="845,663.124,841,669.124,845,675.124,849,669.124,845,663.124" style="stroke:#181818;stroke-width:1.0;"/><text fill="#000000" font-family="sans-serif" font-size="13" lengthAdjust="spacing" textLength="37" x="806.757" y="683.3245">many</text><text fill="#000000" font-family="sans-serif" font-size="13" lengthAdjust="spacing" textLength="8" x="836.7063" y="729.0637">1</text></g><!--link DocumentController to Document--><g id="link_DocumentController_Document"><path codeLine="79" d="M281.153,760.628 C325.577,740.458 376.047,722.297 425,715 C495.805,704.446 571.403,718.268 638.668,739.947 " fill="none" id="DocumentController-Document" style="stroke:#181818;stroke-width:1.0;"/><polygon fill="#000000" points="434.9917,701.2777,425.7919,698.866,426.1314,704.734,434.9917,701.2777" style="stroke:#000000;stroke-width:1.0;"/><text fill="#000000" font-family="sans-serif" font-size="13" lengthAdjust="spacing" textLength="53" x="439" y="706.0669">manage</text></g><!--link DocumentView to Document--><g id="link_DocumentView_Document"><path codeLine="80" d="M553.409,837.5 C578.882,837.5 607.391,837.5 636.338,837.5 " fill="none" id="DocumentView-Document" style="stroke:#181818;stroke-width:1.0;"/><polygon fill="#000000" points="580.25,826.0664,571.2049,823.1275,571.2049,829.0053,580.25,826.0664" style="stroke:#000000;stroke-width:1.0;"/><text fill="#000000" font-family="sans-serif" font-size="13" lengthAdjust="spacing" textLength="34" x="584.25" y="830.5669">show</text></g><!--link DocumentController to DocumentView--><g id="link_DocumentController_DocumentView"><path codeLine="81" d="M281.286,837.5 C308.06,837.5 335.596,837.5 360.694,837.5 " fill="none" id="DocumentController-DocumentView" style="stroke:#181818;stroke-width:1.0;"/><polygon fill="#000000" points="308.5,826.0664,299.4549,823.1275,299.4549,829.0053,308.5,826.0664" style="stroke:#000000;stroke-width:1.0;"/><text fill="#000000" font-family="sans-serif" font-size="13" lengthAdjust="spacing" textLength="30" x="312.5" y="830.5669">uses</text></g><!--SRC=[hLJ1Rjim3BthAuWSWcQfWUqwj06AT1Xssh1klHgAHSGg7CkJv2H6jtxxA5cIdJhPTjZ9elX8lVT4cM-CrRomy53o1fzPLYYbHNw4zo1h6yCkX6pfOLUBk2XKRQnBNKDQBWZs4UtQLLvH3FDhy9y5TTahAQWufi_M9zXUQjlo2gZRmu-MQpeum6xXBQ64QZSLib-C5HKt1hvYONczhPoEWnIsZ2fAbDlI9X49vuGCGM80-N741_Bk9FATJtRwzWilEn5LUzHQ2Zp3SorruKbgBcHh4e0j-uoZ5LP_vzJNGjxt-dSI7ohSOMs91TYkmMWLc99AHTvOxOguvKGhOAdXBGYiqEAmrnE5kRzUro9bahEZv4jgrK_9jywDKwpyFsCpDc2g-ruLRHJ-UVD47CrQrPRB6ftYEsDK8Rd5j7dZpmcyLqGxTY0DBwCrtPb6AemAmtVipBttBWA6svHYCE_OA1rpz3PblOLvmssP2sCJwjFEerByXN1zw2sOY7sKU7XsZrOT1iONqKwwLbM5capQKoaXQHvO9bGHbiifra-jTs1wH22S4a6Oq_LA-HyXvmrMcwSB3ZjlXKp9xmtDCpelJiJxNndS_CoouGyotkmdd0tZFDlnkfl16yhDtitYQB3m4Yva8zjNwQYNJGs5B6M9BPNnBSAAZU_q56BeUaU0ivqU- -ji3HfO_GO0]--></g></svg>