<?xml version="1.0" encoding="us-ascii" standalone="no"?><svg xmlns="http://www.w3.org/2000/svg" xmlns:xlink="http://www.w3.org/1999/xlink" contentStyleType="text/css" height="960px" preserveAspectRatio="none" style="width:1915px;height:960px;background:#FFFFFF;" version="1.1" viewBox="0 0 1915 960" width="1915px" zoomAndPan="magnify"><defs/><g><!--class Shape--><g id="elem_Shape"><rect codeLine="1" fill="#F1F1F1" height="194.6719" id="Shape" rx="2.5" ry="2.5" style="stroke:#181818;stroke-width:0.5;" width="295" x="1362.5" y="7"/><ellipse cx="1483.25" cy="23" fill="#A9DCDF" rx="11" ry="11" style="stroke:#181818;stroke-width:1.0;"/><path d="M1485.3281,24.8125 L1485.7188,25.7969 L1485.3281,25.7969 C1484.875,25.7969 1484.7656,25.8125 1484.6094,25.9219 C1484.3594,26.0781 1484.2031,26.3594 1484.2031,26.6563 C1484.2031,26.9219 1484.3438,27.1719 1484.5625,27.3281 C1484.7031,27.4531 1484.9063,27.5 1485.3281,27.5 L1487.6875,27.5 C1488.0469,27.5 1488.2656,27.4688 1488.4063,27.375 C1488.6563,27.2344 1488.8125,26.9375 1488.8125,26.6563 C1488.8125,26.375 1488.6719,26.125 1488.4531,25.9688 C1488.2813,25.8281 1488.125,25.7969 1487.6563,25.7969 L1484.2656,17.5938 L1480.5938,17.5938 C1480.1406,17.5938 1480.0156,17.6094 1479.8594,17.7031 C1479.6094,17.875 1479.4531,18.1563 1479.4531,18.4375 C1479.4531,18.7188 1479.5938,18.9688 1479.8125,19.1406 C1479.9844,19.25 1480.1563,19.2813 1480.5938,19.2813 L1481.6719,19.2813 L1479.0313,25.7969 C1478.6094,25.7969 1478.4531,25.8125 1478.2969,25.9219 C1478.0469,26.0781 1477.8906,26.3594 1477.8906,26.6563 C1477.8906,27.2188 1478.2656,27.5 1479.0156,27.5 L1481.2813,27.5 C1481.6406,27.5 1481.8594,27.4688 1481.9844,27.375 C1482.25,27.2344 1482.3906,26.9375 1482.3906,26.6563 C1482.3906,26.375 1482.2656,26.125 1482.0469,25.9531 C1481.875,25.8281 1481.7344,25.7969 1481.2813,25.7969 L1480.8906,25.7969 L1481.2813,24.8125 L1485.3281,24.8125 Z M1484.625,23.1094 L1481.9531,23.1094 L1483.2969,19.8438 L1484.625,23.1094 Z " fill="#000000"/><text fill="#000000" font-family="sans-serif" font-size="14" font-style="italic" lengthAdjust="spacing" textLength="45" x="1503.75" y="27.8467">Shape</text><line style="stroke:#181818;stroke-width:0.5;" x1="1363.5" x2="1656.5" y1="39" y2="39"/><rect fill="none" height="6" style="stroke:#C82930;stroke-width:1.0;" width="6" x="1370.5" y="49.6484"/><text fill="#000000" font-family="sans-serif" font-size="14" lengthAdjust="spacing" textLength="89" x="1382.5" y="55.9951">coord_x : int</text><rect fill="none" height="6" style="stroke:#C82930;stroke-width:1.0;" width="6" x="1370.5" y="65.9453"/><text fill="#000000" font-family="sans-serif" font-size="14" lengthAdjust="spacing" textLength="89" x="1382.5" y="72.292">coord_y : int</text><line style="stroke:#181818;stroke-width:0.5;" x1="1363.5" x2="1656.5" y1="79.5938" y2="79.5938"/><ellipse cx="1373.5" cy="93.2422" fill="#84BE84" rx="3" ry="3" style="stroke:#038048;stroke-width:1.0;"/><text fill="#000000" font-family="sans-serif" font-size="14" lengthAdjust="spacing" textLength="55" x="1382.5" y="96.5889">Shape()</text><ellipse cx="1373.5" cy="109.5391" fill="#84BE84" rx="3" ry="3" style="stroke:#038048;stroke-width:1.0;"/><text fill="#000000" font-family="sans-serif" font-size="14" lengthAdjust="spacing" textLength="191" x="1382.5" y="112.8857">Shape(const int, const int)</text><text fill="#000000" font-family="sans-serif" font-size="14" lengthAdjust="spacing" textLength="4" x="1382.5" y="129.1826">&#160;</text><ellipse cx="1373.5" cy="142.1328" fill="#84BE84" rx="3" ry="3" style="stroke:#038048;stroke-width:1.0;"/><text fill="#000000" font-family="sans-serif" font-size="14" lengthAdjust="spacing" textLength="124" x="1382.5" y="145.4795">GetX() const : int</text><ellipse cx="1373.5" cy="158.4297" fill="#84BE84" rx="3" ry="3" style="stroke:#038048;stroke-width:1.0;"/><text fill="#000000" font-family="sans-serif" font-size="14" lengthAdjust="spacing" textLength="123" x="1382.5" y="161.7764">GetY() const : int</text><ellipse cx="1373.5" cy="174.7266" fill="#84BE84" rx="3" ry="3" style="stroke:#038048;stroke-width:1.0;"/><text fill="#000000" font-family="sans-serif" font-size="14" lengthAdjust="spacing" textLength="257" x="1382.5" y="178.0732">SetCoord(const int, const int) : void</text><ellipse cx="1373.5" cy="191.0234" fill="#84BE84" rx="3" ry="3" style="stroke:#038048;stroke-width:1.0;"/><text fill="#000000" font-family="sans-serif" font-size="14" lengthAdjust="spacing" textLength="269" x="1382.5" y="194.3701">virtual GetSquare() const = 0 : double</text></g><!--class Rectangle--><g id="elem_Rectangle"><rect codeLine="14" fill="#F1F1F1" height="145.7813" id="Rectangle" rx="2.5" ry="2.5" style="stroke:#181818;stroke-width:0.5;" width="536" x="932" y="263"/><ellipse cx="1159.25" cy="279" fill="#ADD1B2" rx="11" ry="11" style="stroke:#181818;stroke-width:1.0;"/><path d="M1161.5938,274.6719 C1160.6563,274.2344 1160.0625,274.0938 1159.1875,274.0938 C1156.5625,274.0938 1154.5625,276.1719 1154.5625,278.8906 L1154.5625,280.0156 C1154.5625,282.5938 1156.6719,284.4844 1159.5625,284.4844 C1160.7813,284.4844 1161.9375,284.1875 1162.6875,283.6406 C1163.2656,283.2344 1163.5938,282.7813 1163.5938,282.3906 C1163.5938,281.9375 1163.2031,281.5469 1162.7344,281.5469 C1162.5156,281.5469 1162.3125,281.625 1162.125,281.8125 C1161.6719,282.2969 1161.6719,282.2969 1161.4844,282.3906 C1161.0625,282.6563 1160.375,282.7813 1159.6094,282.7813 C1157.5625,282.7813 1156.2656,281.6875 1156.2656,279.9844 L1156.2656,278.8906 C1156.2656,277.1094 1157.5156,275.7969 1159.25,275.7969 C1159.8281,275.7969 1160.4375,275.9531 1160.9063,276.2031 C1161.3906,276.4844 1161.5625,276.7031 1161.6563,277.1094 C1161.7188,277.5156 1161.75,277.6406 1161.8906,277.7656 C1162.0313,277.9063 1162.2656,278.0156 1162.4844,278.0156 C1162.75,278.0156 1163.0156,277.875 1163.1875,277.6563 C1163.2969,277.5 1163.3281,277.3125 1163.3281,276.8906 L1163.3281,275.4688 C1163.3281,275.0313 1163.3125,274.9063 1163.2188,274.75 C1163.0625,274.4844 1162.7813,274.3438 1162.4844,274.3438 C1162.1875,274.3438 1161.9844,274.4375 1161.7656,274.75 L1161.5938,274.6719 Z " fill="#000000"/><text fill="#000000" font-family="sans-serif" font-size="14" lengthAdjust="spacing" textLength="73" x="1179.75" y="283.8467">Rectangle</text><line style="stroke:#181818;stroke-width:0.5;" x1="933" x2="1467" y1="295" y2="295"/><rect fill="none" height="6" style="stroke:#C82930;stroke-width:1.0;" width="6" x="940" y="305.6484"/><text fill="#000000" font-family="sans-serif" font-size="14" lengthAdjust="spacing" textLength="73" x="952" y="311.9951">width : int</text><rect fill="none" height="6" style="stroke:#C82930;stroke-width:1.0;" width="6" x="940" y="321.9453"/><text fill="#000000" font-family="sans-serif" font-size="14" lengthAdjust="spacing" textLength="80" x="952" y="328.292">height : int</text><line style="stroke:#181818;stroke-width:0.5;" x1="933" x2="1467" y1="335.5938" y2="335.5938"/><ellipse cx="943" cy="349.2422" fill="#84BE84" rx="3" ry="3" style="stroke:#038048;stroke-width:1.0;"/><text fill="#000000" font-family="sans-serif" font-size="14" lengthAdjust="spacing" textLength="83" x="952" y="352.5889">Rectangle()</text><ellipse cx="943" cy="365.5391" fill="#84BE84" rx="3" ry="3" style="stroke:#038048;stroke-width:1.0;"/><text fill="#000000" font-family="sans-serif" font-size="14" lengthAdjust="spacing" textLength="510" x="952" y="368.8857">Rectangle(const int _x, const int _y, const int _width, const int _height)</text><ellipse cx="943" cy="381.8359" fill="#84BE84" rx="3" ry="3" style="stroke:#038048;stroke-width:1.0;"/><text fill="#000000" font-family="sans-serif" font-size="14" lengthAdjust="spacing" textLength="288" x="952" y="385.1826">Rectangle(const Rectangle &amp;_primitive)</text><ellipse cx="943" cy="398.1328" fill="#84BE84" rx="3" ry="3" style="stroke:#038048;stroke-width:1.0;"/><text fill="#000000" font-family="sans-serif" font-size="14" lengthAdjust="spacing" textLength="212" x="952" y="401.4795">GetSquare() override : double</text></g><!--class Circle--><g id="elem_Circle"><rect codeLine="24" fill="#F1F1F1" height="129.4844" id="Circle" rx="2.5" ry="2.5" style="stroke:#181818;stroke-width:0.5;" width="405" x="1503.5" y="271.5"/><ellipse cx="1681.25" cy="287.5" fill="#ADD1B2" rx="11" ry="11" style="stroke:#181818;stroke-width:1.0;"/><path d="M1683.5938,283.1719 C1682.6563,282.7344 1682.0625,282.5938 1681.1875,282.5938 C1678.5625,282.5938 1676.5625,284.6719 1676.5625,287.3906 L1676.5625,288.5156 C1676.5625,291.0938 1678.6719,292.9844 1681.5625,292.9844 C1682.7813,292.9844 1683.9375,292.6875 1684.6875,292.1406 C1685.2656,291.7344 1685.5938,291.2813 1685.5938,290.8906 C1685.5938,290.4375 1685.2031,290.0469 1684.7344,290.0469 C1684.5156,290.0469 1684.3125,290.125 1684.125,290.3125 C1683.6719,290.7969 1683.6719,290.7969 1683.4844,290.8906 C1683.0625,291.1563 1682.375,291.2813 1681.6094,291.2813 C1679.5625,291.2813 1678.2656,290.1875 1678.2656,288.4844 L1678.2656,287.3906 C1678.2656,285.6094 1679.5156,284.2969 1681.25,284.2969 C1681.8281,284.2969 1682.4375,284.4531 1682.9063,284.7031 C1683.3906,284.9844 1683.5625,285.2031 1683.6563,285.6094 C1683.7188,286.0156 1683.75,286.1406 1683.8906,286.2656 C1684.0313,286.4063 1684.2656,286.5156 1684.4844,286.5156 C1684.75,286.5156 1685.0156,286.375 1685.1875,286.1563 C1685.2969,286 1685.3281,285.8125 1685.3281,285.3906 L1685.3281,283.9688 C1685.3281,283.5313 1685.3125,283.4063 1685.2188,283.25 C1685.0625,282.9844 1684.7813,282.8438 1684.4844,282.8438 C1684.1875,282.8438 1683.9844,282.9375 1683.7656,283.25 L1683.5938,283.1719 Z " fill="#000000"/><text fill="#000000" font-family="sans-serif" font-size="14" lengthAdjust="spacing" textLength="41" x="1701.75" y="292.3467">Circle</text><line style="stroke:#181818;stroke-width:0.5;" x1="1504.5" x2="1907.5" y1="303.5" y2="303.5"/><rect fill="none" height="6" style="stroke:#C82930;stroke-width:1.0;" width="6" x="1511.5" y="314.1484"/><text fill="#000000" font-family="sans-serif" font-size="14" lengthAdjust="spacing" textLength="100" x="1523.5" y="320.4951">radius: double</text><line style="stroke:#181818;stroke-width:0.5;" x1="1504.5" x2="1907.5" y1="327.7969" y2="327.7969"/><ellipse cx="1514.5" cy="341.4453" fill="#84BE84" rx="3" ry="3" style="stroke:#038048;stroke-width:1.0;"/><text fill="#000000" font-family="sans-serif" font-size="14" lengthAdjust="spacing" textLength="51" x="1523.5" y="344.792">Circle()</text><ellipse cx="1514.5" cy="357.7422" fill="#84BE84" rx="3" ry="3" style="stroke:#038048;stroke-width:1.0;"/><text fill="#000000" font-family="sans-serif" font-size="14" lengthAdjust="spacing" textLength="379" x="1523.5" y="361.0889">Circle(const int _x, const int _y, const double _radius)</text><ellipse cx="1514.5" cy="374.0391" fill="#84BE84" rx="3" ry="3" style="stroke:#038048;stroke-width:1.0;"/><text fill="#000000" font-family="sans-serif" font-size="14" lengthAdjust="spacing" textLength="224" x="1523.5" y="377.3857">Circle(const Circle &amp;_primitive)</text><ellipse cx="1514.5" cy="390.3359" fill="#84BE84" rx="3" ry="3" style="stroke:#038048;stroke-width:1.0;"/><text fill="#000000" font-family="sans-serif" font-size="14" lengthAdjust="spacing" textLength="212" x="1523.5" y="393.6826">GetSquare() override : double</text></g><!--class Element--><g id="elem_Element"><rect codeLine="33" fill="#F1F1F1" height="243.5625" id="Element" rx="2.5" ry="2.5" style="stroke:#181818;stroke-width:0.5;" width="307" x="1182.5" y="470"/><ellipse cx="1301.25" cy="486" fill="#ADD1B2" rx="11" ry="11" style="stroke:#181818;stroke-width:1.0;"/><path d="M1303.5938,481.6719 C1302.6563,481.2344 1302.0625,481.0938 1301.1875,481.0938 C1298.5625,481.0938 1296.5625,483.1719 1296.5625,485.8906 L1296.5625,487.0156 C1296.5625,489.5938 1298.6719,491.4844 1301.5625,491.4844 C1302.7813,491.4844 1303.9375,491.1875 1304.6875,490.6406 C1305.2656,490.2344 1305.5938,489.7813 1305.5938,489.3906 C1305.5938,488.9375 1305.2031,488.5469 1304.7344,488.5469 C1304.5156,488.5469 1304.3125,488.625 1304.125,488.8125 C1303.6719,489.2969 1303.6719,489.2969 1303.4844,489.3906 C1303.0625,489.6563 1302.375,489.7813 1301.6094,489.7813 C1299.5625,489.7813 1298.2656,488.6875 1298.2656,486.9844 L1298.2656,485.8906 C1298.2656,484.1094 1299.5156,482.7969 1301.25,482.7969 C1301.8281,482.7969 1302.4375,482.9531 1302.9063,483.2031 C1303.3906,483.4844 1303.5625,483.7031 1303.6563,484.1094 C1303.7188,484.5156 1303.75,484.6406 1303.8906,484.7656 C1304.0313,484.9063 1304.2656,485.0156 1304.4844,485.0156 C1304.75,485.0156 1305.0156,484.875 1305.1875,484.6563 C1305.2969,484.5 1305.3281,484.3125 1305.3281,483.8906 L1305.3281,482.4688 C1305.3281,482.0313 1305.3125,481.9063 1305.2188,481.75 C1305.0625,481.4844 1304.7813,481.3438 1304.4844,481.3438 C1304.1875,481.3438 1303.9844,481.4375 1303.7656,481.75 L1303.5938,481.6719 Z " fill="#000000"/><text fill="#000000" font-family="sans-serif" font-size="14" lengthAdjust="spacing" textLength="61" x="1321.75" y="490.8467">Element</text><line style="stroke:#181818;stroke-width:0.5;" x1="1183.5" x2="1488.5" y1="502" y2="502"/><rect fill="none" height="6" style="stroke:#C82930;stroke-width:1.0;" width="6" x="1190.5" y="512.6484"/><text fill="#000000" font-family="sans-serif" font-size="14" lengthAdjust="spacing" textLength="67" x="1202.5" y="518.9951">type : int</text><rect fill="none" height="6" style="stroke:#C82930;stroke-width:1.0;" width="6" x="1190.5" y="528.9453"/><text fill="#000000" font-family="sans-serif" font-size="14" lengthAdjust="spacing" textLength="123" x="1202.5" y="535.292">shared_ptr : data</text><line style="stroke:#181818;stroke-width:0.5;" x1="1183.5" x2="1488.5" y1="542.5938" y2="542.5938"/><ellipse cx="1193.5" cy="556.2422" fill="#84BE84" rx="3" ry="3" style="stroke:#038048;stroke-width:1.0;"/><text fill="#000000" font-family="sans-serif" font-size="14" lengthAdjust="spacing" textLength="137" x="1202.5" y="559.5889">Element() = delete</text><ellipse cx="1193.5" cy="572.5391" fill="#84BE84" rx="3" ry="3" style="stroke:#038048;stroke-width:1.0;"/><text fill="#000000" font-family="sans-serif" font-size="14" lengthAdjust="spacing" textLength="160" x="1202.5" y="575.8857">Element(Circle &amp;) : int</text><ellipse cx="1193.5" cy="588.8359" fill="#84BE84" rx="3" ry="3" style="stroke:#038048;stroke-width:1.0;"/><text fill="#000000" font-family="sans-serif" font-size="14" lengthAdjust="spacing" textLength="192" x="1202.5" y="592.1826">Element(Rectangle &amp;) : int</text><polygon fill="#4177AF" points="1193.5,601.1328,1189.5,607.1328,1197.5,607.1328" style="stroke:#1963A0;stroke-width:1.0;"/><text fill="#000000" font-family="sans-serif" font-size="14" lengthAdjust="spacing" textLength="71" x="1202.5" y="608.4795">Element()</text><text fill="#000000" font-family="sans-serif" font-size="14" lengthAdjust="spacing" textLength="4" x="1202.5" y="624.7764">&#160;</text><ellipse cx="1193.5" cy="637.7266" fill="#84BE84" rx="3" ry="3" style="stroke:#038048;stroke-width:1.0;"/><text fill="#000000" font-family="sans-serif" font-size="14" lengthAdjust="spacing" textLength="106" x="1202.5" y="641.0732">GetType() : int</text><ellipse cx="1193.5" cy="654.0234" fill="#84BE84" rx="3" ry="3" style="stroke:#038048;stroke-width:1.0;"/><text fill="#000000" font-family="sans-serif" font-size="14" lengthAdjust="spacing" textLength="80" x="1202.5" y="657.3701">GetX() : int</text><ellipse cx="1193.5" cy="670.3203" fill="#84BE84" rx="3" ry="3" style="stroke:#038048;stroke-width:1.0;"/><text fill="#000000" font-family="sans-serif" font-size="14" lengthAdjust="spacing" textLength="79" x="1202.5" y="673.667">GetY() : int</text><ellipse cx="1193.5" cy="686.6172" fill="#84BE84" rx="3" ry="3" style="stroke:#038048;stroke-width:1.0;"/><text fill="#000000" font-family="sans-serif" font-size="14" lengthAdjust="spacing" textLength="281" x="1202.5" y="689.9639">SetCoord(const int x, const int y) : void</text><ellipse cx="1193.5" cy="702.9141" fill="#84BE84" rx="3" ry="3" style="stroke:#038048;stroke-width:1.0;"/><text fill="#000000" font-family="sans-serif" font-size="14" lengthAdjust="spacing" textLength="148" x="1202.5" y="706.2607">GetSquare() : double</text></g><!--class Document--><g id="elem_Document"><rect codeLine="49" fill="#F1F1F1" height="178.375" id="Document" rx="2.5" ry="2.5" style="stroke:#181818;stroke-width:0.5;" width="417" x="1127.5" y="775"/><ellipse cx="1294.25" cy="791" fill="#ADD1B2" rx="11" ry="11" style="stroke:#181818;stroke-width:1.0;"/><path d="M1296.5938,786.6719 C1295.6563,786.2344 1295.0625,786.0938 1294.1875,786.0938 C1291.5625,786.0938 1289.5625,788.1719 1289.5625,790.8906 L1289.5625,792.0156 C1289.5625,794.5938 1291.6719,796.4844 1294.5625,796.4844 C1295.7813,796.4844 1296.9375,796.1875 1297.6875,795.6406 C1298.2656,795.2344 1298.5938,794.7813 1298.5938,794.3906 C1298.5938,793.9375 1298.2031,793.5469 1297.7344,793.5469 C1297.5156,793.5469 1297.3125,793.625 1297.125,793.8125 C1296.6719,794.2969 1296.6719,794.2969 1296.4844,794.3906 C1296.0625,794.6563 1295.375,794.7813 1294.6094,794.7813 C1292.5625,794.7813 1291.2656,793.6875 1291.2656,791.9844 L1291.2656,790.8906 C1291.2656,789.1094 1292.5156,787.7969 1294.25,787.7969 C1294.8281,787.7969 1295.4375,787.9531 1295.9063,788.2031 C1296.3906,788.4844 1296.5625,788.7031 1296.6563,789.1094 C1296.7188,789.5156 1296.75,789.6406 1296.8906,789.7656 C1297.0313,789.9063 1297.2656,790.0156 1297.4844,790.0156 C1297.75,790.0156 1298.0156,789.875 1298.1875,789.6563 C1298.2969,789.5 1298.3281,789.3125 1298.3281,788.8906 L1298.3281,787.4688 C1298.3281,787.0313 1298.3125,786.9063 1298.2188,786.75 C1298.0625,786.4844 1297.7813,786.3438 1297.4844,786.3438 C1297.1875,786.3438 1296.9844,786.4375 1296.7656,786.75 L1296.5938,786.6719 Z " fill="#000000"/><text fill="#000000" font-family="sans-serif" font-size="14" lengthAdjust="spacing" textLength="75" x="1314.75" y="795.8467">Document</text><line style="stroke:#181818;stroke-width:0.5;" x1="1128.5" x2="1543.5" y1="807" y2="807"/><rect fill="none" height="6" style="stroke:#C82930;stroke-width:1.0;" width="6" x="1135.5" y="817.6484"/><text fill="#000000" font-family="sans-serif" font-size="14" lengthAdjust="spacing" textLength="391" x="1147.5" y="823.9951">ObjectsContainer : AssociateContainer&lt;int, Element&gt;</text><line style="stroke:#181818;stroke-width:0.5;" x1="1128.5" x2="1543.5" y1="831.2969" y2="831.2969"/><ellipse cx="1138.5" cy="844.9453" fill="#84BE84" rx="3" ry="3" style="stroke:#038048;stroke-width:1.0;"/><text fill="#000000" font-family="sans-serif" font-size="14" lengthAdjust="spacing" textLength="85" x="1147.5" y="848.292">Document()</text><ellipse cx="1138.5" cy="861.2422" fill="#84BE84" rx="3" ry="3" style="stroke:#038048;stroke-width:1.0;"/><text fill="#000000" font-family="sans-serif" font-size="14" lengthAdjust="spacing" textLength="316" x="1147.5" y="864.5889">Document(const int height, const int width)</text><polygon fill="#4177AF" points="1138.5,873.5391,1134.5,879.5391,1142.5,879.5391" style="stroke:#1963A0;stroke-width:1.0;"/><text fill="#000000" font-family="sans-serif" font-size="14" lengthAdjust="spacing" textLength="85" x="1147.5" y="880.8857">Document()</text><text fill="#000000" font-family="sans-serif" font-size="14" lengthAdjust="spacing" textLength="4" x="1147.5" y="897.1826">&#160;</text><ellipse cx="1138.5" cy="910.1328" fill="#84BE84" rx="3" ry="3" style="stroke:#038048;stroke-width:1.0;"/><text fill="#000000" font-family="sans-serif" font-size="14" lengthAdjust="spacing" textLength="229" x="1147.5" y="913.4795">CreateElement(Element &amp;) : int</text><ellipse cx="1138.5" cy="926.4297" fill="#84BE84" rx="3" ry="3" style="stroke:#038048;stroke-width:1.0;"/><text fill="#000000" font-family="sans-serif" font-size="14" lengthAdjust="spacing" textLength="234" x="1147.5" y="929.7764">DeleteElement(const int id) : int</text><ellipse cx="1138.5" cy="942.7266" fill="#84BE84" rx="3" ry="3" style="stroke:#038048;stroke-width:1.0;"/><text fill="#000000" font-family="sans-serif" font-size="14" lengthAdjust="spacing" textLength="257" x="1147.5" y="946.0732">Export(const string &amp;path_dst) : int</text></g><!--class Actions--><g id="elem_Actions"><rect codeLine="61" fill="#F1F1F1" height="129.4844" id="Actions" rx="2.5" ry="2.5" style="stroke:#181818;stroke-width:0.5;" width="392" x="633" y="799.5"/><ellipse cx="797.75" cy="815.5" fill="#ADD1B2" rx="11" ry="11" style="stroke:#181818;stroke-width:1.0;"/><path d="M800.0938,811.1719 C799.1563,810.7344 798.5625,810.5938 797.6875,810.5938 C795.0625,810.5938 793.0625,812.6719 793.0625,815.3906 L793.0625,816.5156 C793.0625,819.0938 795.1719,820.9844 798.0625,820.9844 C799.2813,820.9844 800.4375,820.6875 801.1875,820.1406 C801.7656,819.7344 802.0938,819.2813 802.0938,818.8906 C802.0938,818.4375 801.7031,818.0469 801.2344,818.0469 C801.0156,818.0469 800.8125,818.125 800.625,818.3125 C800.1719,818.7969 800.1719,818.7969 799.9844,818.8906 C799.5625,819.1563 798.875,819.2813 798.1094,819.2813 C796.0625,819.2813 794.7656,818.1875 794.7656,816.4844 L794.7656,815.3906 C794.7656,813.6094 796.0156,812.2969 797.75,812.2969 C798.3281,812.2969 798.9375,812.4531 799.4063,812.7031 C799.8906,812.9844 800.0625,813.2031 800.1563,813.6094 C800.2188,814.0156 800.25,814.1406 800.3906,814.2656 C800.5313,814.4063 800.7656,814.5156 800.9844,814.5156 C801.25,814.5156 801.5156,814.375 801.6875,814.1563 C801.7969,814 801.8281,813.8125 801.8281,813.3906 L801.8281,811.9688 C801.8281,811.5313 801.8125,811.4063 801.7188,811.25 C801.5625,810.9844 801.2813,810.8438 800.9844,810.8438 C800.6875,810.8438 800.4844,810.9375 800.2656,811.25 L800.0938,811.1719 Z " fill="#000000"/><text fill="#000000" font-family="sans-serif" font-size="14" lengthAdjust="spacing" textLength="54" x="818.25" y="820.3467">Actions</text><line style="stroke:#181818;stroke-width:0.5;" x1="634" x2="1024" y1="831.5" y2="831.5"/><line style="stroke:#181818;stroke-width:0.5;" x1="634" x2="1024" y1="839.5" y2="839.5"/><ellipse cx="644" cy="853.1484" fill="#84BE84" rx="3" ry="3" style="stroke:#038048;stroke-width:1.0;"/><text fill="#000000" font-family="sans-serif" font-size="14" lengthAdjust="spacing" textLength="252" x="653" y="856.4951">CreateNewDocument() : Document</text><ellipse cx="644" cy="869.4453" fill="#84BE84" rx="3" ry="3" style="stroke:#038048;stroke-width:1.0;"/><text fill="#000000" font-family="sans-serif" font-size="14" lengthAdjust="spacing" textLength="249" x="653" y="872.792">Import(const string &amp;) : Document</text><ellipse cx="644" cy="885.7422" fill="#84BE84" rx="3" ry="3" style="stroke:#038048;stroke-width:1.0;"/><text fill="#000000" font-family="sans-serif" font-size="14" lengthAdjust="spacing" textLength="351" x="653" y="889.0889">Export(Document &amp;doc, const string &amp;path) : int</text><ellipse cx="644" cy="902.0391" fill="#84BE84" rx="3" ry="3" style="stroke:#038048;stroke-width:1.0;"/><text fill="#000000" font-family="sans-serif" font-size="14" lengthAdjust="spacing" textLength="366" x="653" y="905.3857">CreateElement(Document &amp;doc, Element &amp;el) : int</text><ellipse cx="644" cy="918.3359" fill="#84BE84" rx="3" ry="3" style="stroke:#038048;stroke-width:1.0;"/><text fill="#000000" font-family="sans-serif" font-size="14" lengthAdjust="spacing" textLength="358" x="653" y="921.6826">DeleteElement(Document &amp;doc, const int id) : int</text></g><!--class UserActions--><g id="elem_UserActions"><rect codeLine="69" fill="#F1F1F1" height="129.4844" id="UserActions" rx="2.5" ry="2.5" style="stroke:#181818;stroke-width:0.5;" width="546" x="7" y="799.5"/><ellipse cx="233.75" cy="815.5" fill="#B4A7E5" rx="11" ry="11" style="stroke:#181818;stroke-width:1.0;"/><path d="M234.7031,812.2813 L236.4219,812.2813 C236.8125,812.2813 237,812.25 237.125,812.1719 C237.3906,812.0156 237.5313,811.7344 237.5313,811.4375 C237.5313,811.1719 237.4219,810.9063 237.1875,810.7344 C237.0156,810.625 236.875,810.5938 236.4219,810.5938 L231.2813,810.5938 C230.8438,810.5938 230.7188,810.6094 230.5625,810.7031 C230.3125,810.8594 230.1563,811.1563 230.1563,811.4375 C230.1563,811.7188 230.2969,811.9688 230.5156,812.1406 C230.6719,812.25 230.8594,812.2813 231.2813,812.2813 L233,812.2813 L233,818.7969 L231.2813,818.7969 C230.8438,818.7969 230.7188,818.8125 230.5625,818.9219 C230.3125,819.0781 230.1563,819.3594 230.1563,819.6563 C230.1563,819.9063 230.2969,820.1719 230.5156,820.3281 C230.6719,820.4531 230.875,820.5 231.2813,820.5 L236.4219,820.5 C237.1719,820.5 237.5313,820.2188 237.5313,819.6563 C237.5313,819.375 237.4219,819.125 237.1875,818.9531 C237.0156,818.8281 236.875,818.7969 236.4219,818.7969 L234.7031,818.7969 L234.7031,812.2813 Z " fill="#000000"/><text fill="#000000" font-family="sans-serif" font-size="14" font-style="italic" lengthAdjust="spacing" textLength="84" x="254.25" y="820.3467">UserActions</text><line style="stroke:#181818;stroke-width:0.5;" x1="8" x2="552" y1="831.5" y2="831.5"/><line style="stroke:#181818;stroke-width:0.5;" x1="8" x2="552" y1="839.5" y2="839.5"/><ellipse cx="18" cy="853.1484" fill="#84BE84" rx="3" ry="3" style="stroke:#038048;stroke-width:1.0;"/><text fill="#000000" font-family="sans-serif" font-size="14" lengthAdjust="spacing" textLength="167" x="27" y="856.4951">OnCreate() : Document</text><ellipse cx="18" cy="869.4453" fill="#84BE84" rx="3" ry="3" style="stroke:#038048;stroke-width:1.0;"/><text fill="#000000" font-family="sans-serif" font-size="14" lengthAdjust="spacing" textLength="406" x="27" y="872.792">OnImportDocument(const string &amp;path_src) : Document</text><ellipse cx="18" cy="885.7422" fill="#84BE84" rx="3" ry="3" style="stroke:#038048;stroke-width:1.0;"/><text fill="#000000" font-family="sans-serif" font-size="14" lengthAdjust="spacing" textLength="520" x="27" y="889.0889">OnExportDocument(const Document &amp;doc, const string &amp;path_dst) : int</text><ellipse cx="18" cy="902.0391" fill="#84BE84" rx="3" ry="3" style="stroke:#038048;stroke-width:1.0;"/><text fill="#000000" font-family="sans-serif" font-size="14" lengthAdjust="spacing" textLength="447" x="27" y="905.3857">OnCreateElement(Document &amp;doc, const Element &amp;_obj) : int</text><ellipse cx="18" cy="918.3359" fill="#84BE84" rx="3" ry="3" style="stroke:#038048;stroke-width:1.0;"/><text fill="#000000" font-family="sans-serif" font-size="14" lengthAdjust="spacing" textLength="378" x="27" y="921.6826">OnDeleteElement(Document &amp;doc, const int id) : int</text></g><!--reverse link Shape to Rectangle--><g id="link_Shape_Rectangle"><path codeLine="77" d="M1363.24,214.148 C1340.92,230.675 1318.37,247.371 1297.44,262.86 " fill="none" id="Shape-backto-Rectangle" style="stroke:#181818;stroke-width:1.0;"/><polygon fill="none" points="1359.19,208.438,1379.43,202.164,1367.52,219.69,1359.19,208.438" style="stroke:#181818;stroke-width:1.0;"/></g><!--reverse link Shape to Circle--><g id="link_Shape_Circle"><path codeLine="78" d="M1605.76,217.624 C1621.54,236.105 1637.4,254.676 1651.7,271.42 " fill="none" id="Shape-backto-Circle" style="stroke:#181818;stroke-width:1.0;"/><polygon fill="none" points="1600.22,221.918,1592.55,202.164,1610.87,212.826,1600.22,221.918" style="stroke:#181818;stroke-width:1.0;"/></g><!--reverse link Rectangle to Element--><g id="link_Rectangle_Element"><path codeLine="79" d="M1244.91,420.867 C1253.29,436.522 1262.2,453.17 1271.05,469.69 " fill="none" id="Rectangle-backto-Element" style="stroke:#181818;stroke-width:1.0;"/><polygon fill="#181818" points="1238.61,409.107,1237.9127,416.2843,1244.2697,419.6885,1244.967,412.5112,1238.61,409.107" style="stroke:#181818;stroke-width:1.0;"/><text fill="#000000" font-family="sans-serif" font-size="13" lengthAdjust="spacing" textLength="37" x="1203.5267" y="428.8735">many</text><text fill="#000000" font-family="sans-serif" font-size="13" lengthAdjust="spacing" textLength="8" x="1258.8484" y="458.864">1</text></g><!--reverse link Circle to Element--><g id="link_Circle_Element"><path codeLine="80" d="M1601.98,408.406 C1567.17,432.306 1527.59,459.479 1489.79,485.424 " fill="none" id="Circle-backto-Element" style="stroke:#181818;stroke-width:1.0;"/><polygon fill="#181818" points="1613.11,400.767,1605.8996,400.8646,1603.2164,407.5579,1610.4268,407.4603,1613.11,400.767" style="stroke:#181818;stroke-width:1.0;"/><text fill="#000000" font-family="sans-serif" font-size="13" lengthAdjust="spacing" textLength="37" x="1563.2305" y="421.1694">many</text><text fill="#000000" font-family="sans-serif" font-size="13" lengthAdjust="spacing" textLength="8" x="1497.433" y="476.9792">1</text></g><!--reverse link Element to Document--><g id="link_Element_Document"><path codeLine="81" d="M1336,727.652 C1336,743.718 1336,759.79 1336,774.958 " fill="none" id="Element-backto-Document" style="stroke:#181818;stroke-width:1.0;"/><polygon fill="#181818" points="1336,714.179,1332,720.179,1336,726.179,1340,720.179,1336,714.179" style="stroke:#181818;stroke-width:1.0;"/><text fill="#000000" font-family="sans-serif" font-size="13" lengthAdjust="spacing" textLength="37" x="1297.9305" y="733.7594">many</text><text fill="#000000" font-family="sans-serif" font-size="13" lengthAdjust="spacing" textLength="8" x="1327.6688" y="764.02">1</text></g><!--link Actions to Document--><g id="link_Actions_Document"><path codeLine="82" d="M1025.02,864 C1058.6,864 1093.59,864 1127.48,864 " fill="none" id="Actions-Document" style="stroke:#181818;stroke-width:1.0;"/><polygon fill="#000000" points="1052.25,852.5664,1043.2049,849.6275,1043.2049,855.5053,1052.25,852.5664" style="stroke:#000000;stroke-width:1.0;"/><text fill="#000000" font-family="sans-serif" font-size="13" lengthAdjust="spacing" textLength="53" x="1056.25" y="857.0669">manage</text></g><!--link UserActions to Actions--><g id="link_UserActions_Actions"><path codeLine="83" d="M553.294,864 C580.179,864 607.079,864 632.963,864 " fill="none" id="UserActions-Actions" style="stroke:#181818;stroke-width:1.0;"/><polygon fill="#000000" points="580.5,852.5664,571.4549,849.6275,571.4549,855.5053,580.5,852.5664" style="stroke:#000000;stroke-width:1.0;"/><text fill="#000000" font-family="sans-serif" font-size="13" lengthAdjust="spacing" textLength="30" x="584.5" y="857.0669">uses</text></g><!--SRC=[dLLDRzim3BthLn0v1FMo0DirQ0CKwJ3qiW3B1hGdGv6vM8LZUPASnkZMtpxPiZxikYlGKqNoaNhlYKxfNcb9cOPTJYjy8aicXCpICwo0bzg5JH-IHGUxIDo1YLBfjlGH_34niA-exowIFcTxszpzEBT3lMblc1vaK2V1Cx8uSQbhMe0PiVjTKub-pXLyCgXCrFi2oLz2M46LWk_8D2qFHIleaMSwTt9ov8TSUpKUroeAWMS0wJdY0sapYBh9WumTFp7Bnp1FAycFNFCJ9fqdNf0uePGymmaz6ovP9qRIZDVA0yZ2Lbhw_UbjxhONKZjht6c3zz7yKk0HIsruWcugTAQ3oarhbbPQjarKKqEynvg1Lv1XWHf3pd58t9guGcIZgptxGNRjVZJjVaOxTpU8xaFqSlTWu5WJzY_M_rBsZM2rqxtTFnYEQYDAJNc9hU1hfGJZLADFNdPxtXDV6zvkGlkE_XoOsBMAkNMhbv3dgD6yeqHpY_EZ_nkvUDFPxEfX6C-2qUTAI5SplmoyFC2yeZfFCwKToWk_PfeRv1DPWBtx6pu6HWRj0WEuFKvC7c7wsrq6vfbWJdLCnjE5eUHHetS0Yz0nD67ogg4dHkrjgL7-eWpXfq8PL6zBU_z8wxQqOaSlER1JIHOtGTjbvO-wtZGZVXdFwB_wl2-fs3z4hU-nflit09T_bilm6nSdxQTCmeSxEzAocS47KvjzdZakfF_aNwawngEojxn_4bW6krPWiFI0i2RHenc4EwsWLgXW_Gy0]--></g></svg>