<?xml version="1.0" encoding="us-ascii" standalone="no"?><svg xmlns="http://www.w3.org/2000/svg" xmlns:xlink="http://www.w3.org/1999/xlink" contentStyleType="text/css" height="1007px" preserveAspectRatio="none" style="width:1408px;height:1007px;background:#FFFFFF;" version="1.1" viewBox="0 0 1408 1007" width="1408px" zoomAndPan="magnify"><defs/><g><!--class Shape--><g id="elem_Shape"><rect codeLine="1" fill="#F1F1F1" height="178.375" id="Shape" rx="2.5" ry="2.5" style="stroke:#181818;stroke-width:0.5;" width="295" x="855" y="7"/><ellipse cx="975.75" cy="23" fill="#A9DCDF" rx="11" ry="11" style="stroke:#181818;stroke-width:1.0;"/><path d="M977.8281,24.8125 L978.2188,25.7969 L977.8281,25.7969 C977.375,25.7969 977.2656,25.8125 977.1094,25.9219 C976.8594,26.0781 976.7031,26.3594 976.7031,26.6563 C976.7031,26.9219 976.8438,27.1719 977.0625,27.3281 C977.2031,27.4531 977.4063,27.5 977.8281,27.5 L980.1875,27.5 C980.5469,27.5 980.7656,27.4688 980.9063,27.375 C981.1563,27.2344 981.3125,26.9375 981.3125,26.6563 C981.3125,26.375 981.1719,26.125 980.9531,25.9688 C980.7813,25.8281 980.625,25.7969 980.1563,25.7969 L976.7656,17.5938 L973.0938,17.5938 C972.6406,17.5938 972.5156,17.6094 972.3594,17.7031 C972.1094,17.875 971.9531,18.1563 971.9531,18.4375 C971.9531,18.7188 972.0938,18.9688 972.3125,19.1406 C972.4844,19.25 972.6563,19.2813 973.0938,19.2813 L974.1719,19.2813 L971.5313,25.7969 C971.1094,25.7969 970.9531,25.8125 970.7969,25.9219 C970.5469,26.0781 970.3906,26.3594 970.3906,26.6563 C970.3906,27.2188 970.7656,27.5 971.5156,27.5 L973.7813,27.5 C974.1406,27.5 974.3594,27.4688 974.4844,27.375 C974.75,27.2344 974.8906,26.9375 974.8906,26.6563 C974.8906,26.375 974.7656,26.125 974.5469,25.9531 C974.375,25.8281 974.2344,25.7969 973.7813,25.7969 L973.3906,25.7969 L973.7813,24.8125 L977.8281,24.8125 Z M977.125,23.1094 L974.4531,23.1094 L975.7969,19.8438 L977.125,23.1094 Z " fill="#000000"/><text fill="#000000" font-family="sans-serif" font-size="14" font-style="italic" lengthAdjust="spacing" textLength="45" x="996.25" y="27.8467">Shape</text><line style="stroke:#181818;stroke-width:0.5;" x1="856" x2="1149" y1="39" y2="39"/><rect fill="none" height="6" style="stroke:#C82930;stroke-width:1.0;" width="6" x="863" y="49.6484"/><text fill="#000000" font-family="sans-serif" font-size="14" lengthAdjust="spacing" textLength="89" x="875" y="55.9951">coord_x : int</text><rect fill="none" height="6" style="stroke:#C82930;stroke-width:1.0;" width="6" x="863" y="65.9453"/><text fill="#000000" font-family="sans-serif" font-size="14" lengthAdjust="spacing" textLength="89" x="875" y="72.292">coord_y : int</text><line style="stroke:#181818;stroke-width:0.5;" x1="856" x2="1149" y1="79.5938" y2="79.5938"/><ellipse cx="866" cy="93.2422" fill="#84BE84" rx="3" ry="3" style="stroke:#038048;stroke-width:1.0;"/><text fill="#000000" font-family="sans-serif" font-size="14" lengthAdjust="spacing" textLength="55" x="875" y="96.5889">Shape()</text><ellipse cx="866" cy="109.5391" fill="#84BE84" rx="3" ry="3" style="stroke:#038048;stroke-width:1.0;"/><text fill="#000000" font-family="sans-serif" font-size="14" lengthAdjust="spacing" textLength="191" x="875" y="112.8857">Shape(const int, const int)</text><text fill="#000000" font-family="sans-serif" font-size="14" lengthAdjust="spacing" textLength="4" x="875" y="129.1826">&#160;</text><ellipse cx="866" cy="142.1328" fill="#84BE84" rx="3" ry="3" style="stroke:#038048;stroke-width:1.0;"/><text fill="#000000" font-family="sans-serif" font-size="14" lengthAdjust="spacing" textLength="201" x="875" y="145.4795">GetCoord(int &amp;, int &amp;) : void</text><ellipse cx="866" cy="158.4297" fill="#84BE84" rx="3" ry="3" style="stroke:#038048;stroke-width:1.0;"/><text fill="#000000" font-family="sans-serif" font-size="14" lengthAdjust="spacing" textLength="257" x="875" y="161.7764">SetCoord(const int, const int) : void</text><ellipse cx="866" cy="174.7266" fill="#84BE84" rx="3" ry="3" style="stroke:#038048;stroke-width:1.0;"/><text fill="#000000" font-family="sans-serif" font-size="14" lengthAdjust="spacing" textLength="269" x="875" y="178.0732">virtual GetSquare() const = 0 : double</text></g><!--class Rectangle--><g id="elem_Rectangle"><rect codeLine="13" fill="#F1F1F1" height="129.4844" id="Rectangle" rx="2.5" ry="2.5" style="stroke:#181818;stroke-width:0.5;" width="536" x="424.5" y="246"/><ellipse cx="651.75" cy="262" fill="#ADD1B2" rx="11" ry="11" style="stroke:#181818;stroke-width:1.0;"/><path d="M654.0938,257.6719 C653.1563,257.2344 652.5625,257.0938 651.6875,257.0938 C649.0625,257.0938 647.0625,259.1719 647.0625,261.8906 L647.0625,263.0156 C647.0625,265.5938 649.1719,267.4844 652.0625,267.4844 C653.2813,267.4844 654.4375,267.1875 655.1875,266.6406 C655.7656,266.2344 656.0938,265.7813 656.0938,265.3906 C656.0938,264.9375 655.7031,264.5469 655.2344,264.5469 C655.0156,264.5469 654.8125,264.625 654.625,264.8125 C654.1719,265.2969 654.1719,265.2969 653.9844,265.3906 C653.5625,265.6563 652.875,265.7813 652.1094,265.7813 C650.0625,265.7813 648.7656,264.6875 648.7656,262.9844 L648.7656,261.8906 C648.7656,260.1094 650.0156,258.7969 651.75,258.7969 C652.3281,258.7969 652.9375,258.9531 653.4063,259.2031 C653.8906,259.4844 654.0625,259.7031 654.1563,260.1094 C654.2188,260.5156 654.25,260.6406 654.3906,260.7656 C654.5313,260.9063 654.7656,261.0156 654.9844,261.0156 C655.25,261.0156 655.5156,260.875 655.6875,260.6563 C655.7969,260.5 655.8281,260.3125 655.8281,259.8906 L655.8281,258.4688 C655.8281,258.0313 655.8125,257.9063 655.7188,257.75 C655.5625,257.4844 655.2813,257.3438 654.9844,257.3438 C654.6875,257.3438 654.4844,257.4375 654.2656,257.75 L654.0938,257.6719 Z " fill="#000000"/><text fill="#000000" font-family="sans-serif" font-size="14" lengthAdjust="spacing" textLength="73" x="672.25" y="266.8467">Rectangle</text><line style="stroke:#181818;stroke-width:0.5;" x1="425.5" x2="959.5" y1="278" y2="278"/><rect fill="none" height="6" style="stroke:#C82930;stroke-width:1.0;" width="6" x="432.5" y="288.6484"/><text fill="#000000" font-family="sans-serif" font-size="14" lengthAdjust="spacing" textLength="73" x="444.5" y="294.9951">width : int</text><rect fill="none" height="6" style="stroke:#C82930;stroke-width:1.0;" width="6" x="432.5" y="304.9453"/><text fill="#000000" font-family="sans-serif" font-size="14" lengthAdjust="spacing" textLength="80" x="444.5" y="311.292">height : int</text><line style="stroke:#181818;stroke-width:0.5;" x1="425.5" x2="959.5" y1="318.5938" y2="318.5938"/><ellipse cx="435.5" cy="332.2422" fill="#84BE84" rx="3" ry="3" style="stroke:#038048;stroke-width:1.0;"/><text fill="#000000" font-family="sans-serif" font-size="14" lengthAdjust="spacing" textLength="83" x="444.5" y="335.5889">Rectangle()</text><ellipse cx="435.5" cy="348.5391" fill="#84BE84" rx="3" ry="3" style="stroke:#038048;stroke-width:1.0;"/><text fill="#000000" font-family="sans-serif" font-size="14" lengthAdjust="spacing" textLength="510" x="444.5" y="351.8857">Rectangle(const int _x, const int _y, const int _width, const int _height)</text><ellipse cx="435.5" cy="364.8359" fill="#84BE84" rx="3" ry="3" style="stroke:#038048;stroke-width:1.0;"/><text fill="#000000" font-family="sans-serif" font-size="14" lengthAdjust="spacing" textLength="212" x="444.5" y="368.1826">GetSquare() override : double</text></g><!--class Circle--><g id="elem_Circle"><rect codeLine="22" fill="#F1F1F1" height="113.1875" id="Circle" rx="2.5" ry="2.5" style="stroke:#181818;stroke-width:0.5;" width="405" x="996" y="254"/><ellipse cx="1173.75" cy="270" fill="#ADD1B2" rx="11" ry="11" style="stroke:#181818;stroke-width:1.0;"/><path d="M1176.0938,265.6719 C1175.1563,265.2344 1174.5625,265.0938 1173.6875,265.0938 C1171.0625,265.0938 1169.0625,267.1719 1169.0625,269.8906 L1169.0625,271.0156 C1169.0625,273.5938 1171.1719,275.4844 1174.0625,275.4844 C1175.2813,275.4844 1176.4375,275.1875 1177.1875,274.6406 C1177.7656,274.2344 1178.0938,273.7813 1178.0938,273.3906 C1178.0938,272.9375 1177.7031,272.5469 1177.2344,272.5469 C1177.0156,272.5469 1176.8125,272.625 1176.625,272.8125 C1176.1719,273.2969 1176.1719,273.2969 1175.9844,273.3906 C1175.5625,273.6563 1174.875,273.7813 1174.1094,273.7813 C1172.0625,273.7813 1170.7656,272.6875 1170.7656,270.9844 L1170.7656,269.8906 C1170.7656,268.1094 1172.0156,266.7969 1173.75,266.7969 C1174.3281,266.7969 1174.9375,266.9531 1175.4063,267.2031 C1175.8906,267.4844 1176.0625,267.7031 1176.1563,268.1094 C1176.2188,268.5156 1176.25,268.6406 1176.3906,268.7656 C1176.5313,268.9063 1176.7656,269.0156 1176.9844,269.0156 C1177.25,269.0156 1177.5156,268.875 1177.6875,268.6563 C1177.7969,268.5 1177.8281,268.3125 1177.8281,267.8906 L1177.8281,266.4688 C1177.8281,266.0313 1177.8125,265.9063 1177.7188,265.75 C1177.5625,265.4844 1177.2813,265.3438 1176.9844,265.3438 C1176.6875,265.3438 1176.4844,265.4375 1176.2656,265.75 L1176.0938,265.6719 Z " fill="#000000"/><text fill="#000000" font-family="sans-serif" font-size="14" lengthAdjust="spacing" textLength="41" x="1194.25" y="274.8467">Circle</text><line style="stroke:#181818;stroke-width:0.5;" x1="997" x2="1400" y1="286" y2="286"/><rect fill="none" height="6" style="stroke:#C82930;stroke-width:1.0;" width="6" x="1004" y="296.6484"/><text fill="#000000" font-family="sans-serif" font-size="14" lengthAdjust="spacing" textLength="100" x="1016" y="302.9951">radius: double</text><line style="stroke:#181818;stroke-width:0.5;" x1="997" x2="1400" y1="310.2969" y2="310.2969"/><ellipse cx="1007" cy="323.9453" fill="#84BE84" rx="3" ry="3" style="stroke:#038048;stroke-width:1.0;"/><text fill="#000000" font-family="sans-serif" font-size="14" lengthAdjust="spacing" textLength="51" x="1016" y="327.292">Circle()</text><ellipse cx="1007" cy="340.2422" fill="#84BE84" rx="3" ry="3" style="stroke:#038048;stroke-width:1.0;"/><text fill="#000000" font-family="sans-serif" font-size="14" lengthAdjust="spacing" textLength="379" x="1016" y="343.5889">Circle(const int _x, const int _y, const double _radius)</text><ellipse cx="1007" cy="356.5391" fill="#84BE84" rx="3" ry="3" style="stroke:#038048;stroke-width:1.0;"/><text fill="#000000" font-family="sans-serif" font-size="14" lengthAdjust="spacing" textLength="212" x="1016" y="359.8857">GetSquare() override : double</text></g><!--class Element--><g id="elem_Element"><rect codeLine="30" fill="#F1F1F1" height="227.2656" id="Element" rx="2.5" ry="2.5" style="stroke:#181818;stroke-width:0.5;" width="283" x="687" y="436"/><ellipse cx="793.75" cy="452" fill="#ADD1B2" rx="11" ry="11" style="stroke:#181818;stroke-width:1.0;"/><path d="M796.0938,447.6719 C795.1563,447.2344 794.5625,447.0938 793.6875,447.0938 C791.0625,447.0938 789.0625,449.1719 789.0625,451.8906 L789.0625,453.0156 C789.0625,455.5938 791.1719,457.4844 794.0625,457.4844 C795.2813,457.4844 796.4375,457.1875 797.1875,456.6406 C797.7656,456.2344 798.0938,455.7813 798.0938,455.3906 C798.0938,454.9375 797.7031,454.5469 797.2344,454.5469 C797.0156,454.5469 796.8125,454.625 796.625,454.8125 C796.1719,455.2969 796.1719,455.2969 795.9844,455.3906 C795.5625,455.6563 794.875,455.7813 794.1094,455.7813 C792.0625,455.7813 790.7656,454.6875 790.7656,452.9844 L790.7656,451.8906 C790.7656,450.1094 792.0156,448.7969 793.75,448.7969 C794.3281,448.7969 794.9375,448.9531 795.4063,449.2031 C795.8906,449.4844 796.0625,449.7031 796.1563,450.1094 C796.2188,450.5156 796.25,450.6406 796.3906,450.7656 C796.5313,450.9063 796.7656,451.0156 796.9844,451.0156 C797.25,451.0156 797.5156,450.875 797.6875,450.6563 C797.7969,450.5 797.8281,450.3125 797.8281,449.8906 L797.8281,448.4688 C797.8281,448.0313 797.8125,447.9063 797.7188,447.75 C797.5625,447.4844 797.2813,447.3438 796.9844,447.3438 C796.6875,447.3438 796.4844,447.4375 796.2656,447.75 L796.0938,447.6719 Z " fill="#000000"/><text fill="#000000" font-family="sans-serif" font-size="14" lengthAdjust="spacing" textLength="61" x="814.25" y="456.8467">Element</text><line style="stroke:#181818;stroke-width:0.5;" x1="688" x2="969" y1="468" y2="468"/><rect fill="none" height="6" style="stroke:#C82930;stroke-width:1.0;" width="6" x="695" y="478.6484"/><text fill="#000000" font-family="sans-serif" font-size="14" lengthAdjust="spacing" textLength="67" x="707" y="484.9951">type : int</text><rect fill="none" height="6" style="stroke:#C82930;stroke-width:1.0;" width="6" x="695" y="494.9453"/><text fill="#000000" font-family="sans-serif" font-size="14" lengthAdjust="spacing" textLength="111" x="707" y="501.292">data : SmartPtr</text><line style="stroke:#181818;stroke-width:0.5;" x1="688" x2="969" y1="508.5938" y2="508.5938"/><ellipse cx="698" cy="522.2422" fill="#84BE84" rx="3" ry="3" style="stroke:#038048;stroke-width:1.0;"/><text fill="#000000" font-family="sans-serif" font-size="14" lengthAdjust="spacing" textLength="137" x="707" y="525.5889">Element() = delete</text><ellipse cx="698" cy="538.5391" fill="#84BE84" rx="3" ry="3" style="stroke:#038048;stroke-width:1.0;"/><text fill="#000000" font-family="sans-serif" font-size="14" lengthAdjust="spacing" textLength="171" x="707" y="541.8857">Element(Circle &amp;&amp;) : int</text><ellipse cx="698" cy="554.8359" fill="#84BE84" rx="3" ry="3" style="stroke:#038048;stroke-width:1.0;"/><text fill="#000000" font-family="sans-serif" font-size="14" lengthAdjust="spacing" textLength="203" x="707" y="558.1826">Element(Rectangle &amp;&amp;) : int</text><polygon fill="#4177AF" points="698,567.1328,694,573.1328,702,573.1328" style="stroke:#1963A0;stroke-width:1.0;"/><text fill="#000000" font-family="sans-serif" font-size="14" lengthAdjust="spacing" textLength="71" x="707" y="574.4795">Element()</text><text fill="#000000" font-family="sans-serif" font-size="14" lengthAdjust="spacing" textLength="4" x="707" y="590.7764">&#160;</text><ellipse cx="698" cy="603.7266" fill="#84BE84" rx="3" ry="3" style="stroke:#038048;stroke-width:1.0;"/><text fill="#000000" font-family="sans-serif" font-size="14" lengthAdjust="spacing" textLength="106" x="707" y="607.0732">GetType() : int</text><ellipse cx="698" cy="620.0234" fill="#84BE84" rx="3" ry="3" style="stroke:#038048;stroke-width:1.0;"/><text fill="#000000" font-family="sans-serif" font-size="14" lengthAdjust="spacing" textLength="201" x="707" y="623.3701">GetCoord(int &amp;, int &amp;) : void</text><ellipse cx="698" cy="636.3203" fill="#84BE84" rx="3" ry="3" style="stroke:#038048;stroke-width:1.0;"/><text fill="#000000" font-family="sans-serif" font-size="14" lengthAdjust="spacing" textLength="257" x="707" y="639.667">SetCoord(const int, const int) : void</text><ellipse cx="698" cy="652.6172" fill="#84BE84" rx="3" ry="3" style="stroke:#038048;stroke-width:1.0;"/><text fill="#000000" font-family="sans-serif" font-size="14" lengthAdjust="spacing" textLength="148" x="707" y="655.9639">GetSquare() : double</text></g><!--class Document--><g id="elem_Document"><rect codeLine="45" fill="#F1F1F1" height="276.1563" id="Document" rx="2.5" ry="2.5" style="stroke:#181818;stroke-width:0.5;" width="481" x="588" y="724"/><ellipse cx="786.75" cy="740" fill="#ADD1B2" rx="11" ry="11" style="stroke:#181818;stroke-width:1.0;"/><path d="M789.0938,735.6719 C788.1563,735.2344 787.5625,735.0938 786.6875,735.0938 C784.0625,735.0938 782.0625,737.1719 782.0625,739.8906 L782.0625,741.0156 C782.0625,743.5938 784.1719,745.4844 787.0625,745.4844 C788.2813,745.4844 789.4375,745.1875 790.1875,744.6406 C790.7656,744.2344 791.0938,743.7813 791.0938,743.3906 C791.0938,742.9375 790.7031,742.5469 790.2344,742.5469 C790.0156,742.5469 789.8125,742.625 789.625,742.8125 C789.1719,743.2969 789.1719,743.2969 788.9844,743.3906 C788.5625,743.6563 787.875,743.7813 787.1094,743.7813 C785.0625,743.7813 783.7656,742.6875 783.7656,740.9844 L783.7656,739.8906 C783.7656,738.1094 785.0156,736.7969 786.75,736.7969 C787.3281,736.7969 787.9375,736.9531 788.4063,737.2031 C788.8906,737.4844 789.0625,737.7031 789.1563,738.1094 C789.2188,738.5156 789.25,738.6406 789.3906,738.7656 C789.5313,738.9063 789.7656,739.0156 789.9844,739.0156 C790.25,739.0156 790.5156,738.875 790.6875,738.6563 C790.7969,738.5 790.8281,738.3125 790.8281,737.8906 L790.8281,736.4688 C790.8281,736.0313 790.8125,735.9063 790.7188,735.75 C790.5625,735.4844 790.2813,735.3438 789.9844,735.3438 C789.6875,735.3438 789.4844,735.4375 789.2656,735.75 L789.0938,735.6719 Z " fill="#000000"/><text fill="#000000" font-family="sans-serif" font-size="14" lengthAdjust="spacing" textLength="75" x="807.25" y="744.8467">Document</text><line style="stroke:#181818;stroke-width:0.5;" x1="589" x2="1068" y1="756" y2="756"/><rect fill="none" height="6" style="stroke:#C82930;stroke-width:1.0;" width="6" x="596" y="766.6484"/><text fill="#000000" font-family="sans-serif" font-size="14" lengthAdjust="spacing" textLength="391" x="608" y="772.9951">ObjectsContainer : AssociateContainer&lt;int, Element&gt;</text><rect fill="none" height="6" style="stroke:#C82930;stroke-width:1.0;" width="6" x="596" y="782.9453"/><text fill="#000000" font-family="sans-serif" font-size="14" lengthAdjust="spacing" textLength="80" x="608" y="789.292">height : int</text><rect fill="none" height="6" style="stroke:#C82930;stroke-width:1.0;" width="6" x="596" y="799.2422"/><text fill="#000000" font-family="sans-serif" font-size="14" lengthAdjust="spacing" textLength="73" x="608" y="805.5889">width : int</text><rect fill="none" height="6" style="stroke:#C82930;stroke-width:1.0;" width="6" x="596" y="815.5391"/><text fill="#000000" font-family="sans-serif" font-size="14" lengthAdjust="spacing" textLength="88" x="608" y="821.8857">Path : string</text><line style="stroke:#181818;stroke-width:0.5;" x1="589" x2="1068" y1="829.1875" y2="829.1875"/><ellipse cx="599" cy="842.8359" fill="#84BE84" rx="3" ry="3" style="stroke:#038048;stroke-width:1.0;"/><text fill="#000000" font-family="sans-serif" font-size="14" lengthAdjust="spacing" textLength="85" x="608" y="846.1826">Document()</text><ellipse cx="599" cy="859.1328" fill="#84BE84" rx="3" ry="3" style="stroke:#038048;stroke-width:1.0;"/><text fill="#000000" font-family="sans-serif" font-size="14" lengthAdjust="spacing" textLength="455" x="608" y="862.4795">Document(const int height, const int width, const char * _path)</text><ellipse cx="599" cy="875.4297" fill="#84BE84" rx="3" ry="3" style="stroke:#038048;stroke-width:1.0;"/><text fill="#000000" font-family="sans-serif" font-size="14" lengthAdjust="spacing" textLength="198" x="608" y="878.7764">Getattributes() : tuple&lt;...&gt;</text><ellipse cx="599" cy="891.7266" fill="#84BE84" rx="3" ry="3" style="stroke:#038048;stroke-width:1.0;"/><text fill="#000000" font-family="sans-serif" font-size="14" lengthAdjust="spacing" textLength="190" x="608" y="895.0732">SetHeight(const int) : void</text><ellipse cx="599" cy="908.0234" fill="#84BE84" rx="3" ry="3" style="stroke:#038048;stroke-width:1.0;"/><text fill="#000000" font-family="sans-serif" font-size="14" lengthAdjust="spacing" textLength="185" x="608" y="911.3701">SetWidth(const int) : void</text><ellipse cx="599" cy="924.3203" fill="#84BE84" rx="3" ry="3" style="stroke:#038048;stroke-width:1.0;"/><text fill="#000000" font-family="sans-serif" font-size="14" lengthAdjust="spacing" textLength="197" x="608" y="927.667">SetPath(const string) : void</text><polygon fill="#4177AF" points="599,936.6172,595,942.6172,603,942.6172" style="stroke:#1963A0;stroke-width:1.0;"/><text fill="#000000" font-family="sans-serif" font-size="14" lengthAdjust="spacing" textLength="85" x="608" y="943.9639">Document()</text><text fill="#000000" font-family="sans-serif" font-size="14" lengthAdjust="spacing" textLength="4" x="608" y="960.2607">&#160;</text><ellipse cx="599" cy="973.2109" fill="#84BE84" rx="3" ry="3" style="stroke:#038048;stroke-width:1.0;"/><text fill="#000000" font-family="sans-serif" font-size="14" lengthAdjust="spacing" textLength="240" x="608" y="976.5576">CreateElement(Element &amp;&amp;) : int</text><ellipse cx="599" cy="989.5078" fill="#84BE84" rx="3" ry="3" style="stroke:#038048;stroke-width:1.0;"/><text fill="#000000" font-family="sans-serif" font-size="14" lengthAdjust="spacing" textLength="234" x="608" y="992.8545">DeleteElement(const int id) : int</text></g><!--class Actions--><g id="elem_Actions"><rect codeLine="63" fill="#F1F1F1" height="129.4844" id="Actions" rx="2.5" ry="2.5" style="stroke:#181818;stroke-width:0.5;" width="282" x="203.5" y="797.5"/><ellipse cx="313.25" cy="813.5" fill="#ADD1B2" rx="11" ry="11" style="stroke:#181818;stroke-width:1.0;"/><path d="M315.5938,809.1719 C314.6563,808.7344 314.0625,808.5938 313.1875,808.5938 C310.5625,808.5938 308.5625,810.6719 308.5625,813.3906 L308.5625,814.5156 C308.5625,817.0938 310.6719,818.9844 313.5625,818.9844 C314.7813,818.9844 315.9375,818.6875 316.6875,818.1406 C317.2656,817.7344 317.5938,817.2813 317.5938,816.8906 C317.5938,816.4375 317.2031,816.0469 316.7344,816.0469 C316.5156,816.0469 316.3125,816.125 316.125,816.3125 C315.6719,816.7969 315.6719,816.7969 315.4844,816.8906 C315.0625,817.1563 314.375,817.2813 313.6094,817.2813 C311.5625,817.2813 310.2656,816.1875 310.2656,814.4844 L310.2656,813.3906 C310.2656,811.6094 311.5156,810.2969 313.25,810.2969 C313.8281,810.2969 314.4375,810.4531 314.9063,810.7031 C315.3906,810.9844 315.5625,811.2031 315.6563,811.6094 C315.7188,812.0156 315.75,812.1406 315.8906,812.2656 C316.0313,812.4063 316.2656,812.5156 316.4844,812.5156 C316.75,812.5156 317.0156,812.375 317.1875,812.1563 C317.2969,812 317.3281,811.8125 317.3281,811.3906 L317.3281,809.9688 C317.3281,809.5313 317.3125,809.4063 317.2188,809.25 C317.0625,808.9844 316.7813,808.8438 316.4844,808.8438 C316.1875,808.8438 315.9844,808.9375 315.7656,809.25 L315.5938,809.1719 Z " fill="#000000"/><text fill="#000000" font-family="sans-serif" font-size="14" lengthAdjust="spacing" textLength="54" x="333.75" y="818.3467">Actions</text><line style="stroke:#181818;stroke-width:0.5;" x1="204.5" x2="484.5" y1="829.5" y2="829.5"/><line style="stroke:#181818;stroke-width:0.5;" x1="204.5" x2="484.5" y1="837.5" y2="837.5"/><ellipse cx="214.5" cy="851.1484" fill="#84BE84" rx="3" ry="3" style="stroke:#038048;stroke-width:1.0;"/><text fill="#000000" font-family="sans-serif" font-size="14" lengthAdjust="spacing" textLength="197" x="223.5" y="854.4951">CreateNewDocument() : int</text><ellipse cx="214.5" cy="867.4453" fill="#84BE84" rx="3" ry="3" style="stroke:#038048;stroke-width:1.0;"/><text fill="#000000" font-family="sans-serif" font-size="14" lengthAdjust="spacing" textLength="256" x="223.5" y="870.792">Import(const string &amp;path_src) : int</text><ellipse cx="214.5" cy="883.7422" fill="#84BE84" rx="3" ry="3" style="stroke:#038048;stroke-width:1.0;"/><text fill="#000000" font-family="sans-serif" font-size="14" lengthAdjust="spacing" textLength="246" x="223.5" y="887.0889">Export(const char &amp;path_dst) : int</text><ellipse cx="214.5" cy="900.0391" fill="#84BE84" rx="3" ry="3" style="stroke:#038048;stroke-width:1.0;"/><text fill="#000000" font-family="sans-serif" font-size="14" lengthAdjust="spacing" textLength="240" x="223.5" y="903.3857">CreateElement(Element &amp;&amp;) : int</text><ellipse cx="214.5" cy="916.3359" fill="#84BE84" rx="3" ry="3" style="stroke:#038048;stroke-width:1.0;"/><text fill="#000000" font-family="sans-serif" font-size="14" lengthAdjust="spacing" textLength="234" x="223.5" y="919.6826">DeleteElement(const int id) : int</text></g><!--class UserActions--><g id="elem_UserActions"><rect codeLine="71" fill="#F1F1F1" height="48" id="UserActions" rx="2.5" ry="2.5" style="stroke:#181818;stroke-width:0.5;" width="117" x="7" y="838"/><ellipse cx="22" cy="854" fill="#ADD1B2" rx="11" ry="11" style="stroke:#181818;stroke-width:1.0;"/><path d="M24.3438,849.6719 C23.4063,849.2344 22.8125,849.0938 21.9375,849.0938 C19.3125,849.0938 17.3125,851.1719 17.3125,853.8906 L17.3125,855.0156 C17.3125,857.5938 19.4219,859.4844 22.3125,859.4844 C23.5313,859.4844 24.6875,859.1875 25.4375,858.6406 C26.0156,858.2344 26.3438,857.7813 26.3438,857.3906 C26.3438,856.9375 25.9531,856.5469 25.4844,856.5469 C25.2656,856.5469 25.0625,856.625 24.875,856.8125 C24.4219,857.2969 24.4219,857.2969 24.2344,857.3906 C23.8125,857.6563 23.125,857.7813 22.3594,857.7813 C20.3125,857.7813 19.0156,856.6875 19.0156,854.9844 L19.0156,853.8906 C19.0156,852.1094 20.2656,850.7969 22,850.7969 C22.5781,850.7969 23.1875,850.9531 23.6563,851.2031 C24.1406,851.4844 24.3125,851.7031 24.4063,852.1094 C24.4688,852.5156 24.5,852.6406 24.6406,852.7656 C24.7813,852.9063 25.0156,853.0156 25.2344,853.0156 C25.5,853.0156 25.7656,852.875 25.9375,852.6563 C26.0469,852.5 26.0781,852.3125 26.0781,851.8906 L26.0781,850.4688 C26.0781,850.0313 26.0625,849.9063 25.9688,849.75 C25.8125,849.4844 25.5313,849.3438 25.2344,849.3438 C24.9375,849.3438 24.7344,849.4375 24.5156,849.75 L24.3438,849.6719 Z " fill="#000000"/><text fill="#000000" font-family="sans-serif" font-size="14" lengthAdjust="spacing" textLength="85" x="36" y="858.8467">UserActions</text><line style="stroke:#181818;stroke-width:0.5;" x1="8" x2="123" y1="870" y2="870"/><line style="stroke:#181818;stroke-width:0.5;" x1="8" x2="123" y1="878" y2="878"/></g><!--reverse link Shape to Rectangle--><g id="link_Shape_Rectangle"><path codeLine="74" d="M856.96,196.765 C832.629,213.444 807.986,230.336 785.441,245.79 " fill="none" id="Shape-backto-Rectangle" style="stroke:#181818;stroke-width:1.0;"/><polygon fill="none" points="853.271,190.807,873.725,185.273,861.187,202.355,853.271,190.807" style="stroke:#181818;stroke-width:1.0;"/></g><!--reverse link Shape to Circle--><g id="link_Shape_Circle"><path codeLine="75" d="M1097.6,200.108 C1114.75,218.695 1132.01,237.41 1147.29,253.976 " fill="none" id="Shape-backto-Circle" style="stroke:#181818;stroke-width:1.0;"/><polygon fill="none" points="1092.33,204.72,1083.92,185.273,1102.62,195.228,1092.33,204.72" style="stroke:#181818;stroke-width:1.0;"/></g><!--reverse link Rectangle to Element--><g id="link_Rectangle_Element"><path codeLine="76" d="M735.67,386.73 C744.65,402.38 754.301,419.197 763.862,435.859 " fill="none" id="Rectangle-backto-Element" style="stroke:#181818;stroke-width:1.0;"/><polygon fill="#181818" points="728.946,375.012,728.4634,382.2069,734.9193,385.4197,735.4019,378.2248,728.946,375.012" style="stroke:#181818;stroke-width:1.0;"/><text fill="#000000" font-family="sans-serif" font-size="13" lengthAdjust="spacing" textLength="37" x="694.021" y="395.385">many</text><text fill="#000000" font-family="sans-serif" font-size="13" lengthAdjust="spacing" textLength="8" x="751.2504" y="424.7823">1</text></g><!--reverse link Circle to Element--><g id="link_Circle_Element"><path codeLine="77" d="M1100.67,374.163 C1060.7,399.769 1013.68,429.885 970.075,457.815 " fill="none" id="Circle-backto-Element" style="stroke:#181818;stroke-width:1.0;"/><polygon fill="#181818" points="1111.75,367.066,1104.5401,366.9355,1101.6465,373.5406,1108.8564,373.6711,1111.75,367.066" style="stroke:#181818;stroke-width:1.0;"/><text fill="#000000" font-family="sans-serif" font-size="13" lengthAdjust="spacing" textLength="37" x="1061.2648" y="387.3378">many</text><text fill="#000000" font-family="sans-serif" font-size="13" lengthAdjust="spacing" textLength="8" x="978.0361" y="449.4541">1</text></g><!--reverse link Element to Document--><g id="link_Element_Document"><path codeLine="78" d="M828.5,676.15 C828.5,691.897 828.5,708.065 828.5,723.975 " fill="none" id="Element-backto-Document" style="stroke:#181818;stroke-width:1.0;"/><polygon fill="#181818" points="828.5,663.037,824.5,669.037,828.5,675.037,832.5,669.037,828.5,663.037" style="stroke:#181818;stroke-width:1.0;"/><text fill="#000000" font-family="sans-serif" font-size="13" lengthAdjust="spacing" textLength="37" x="790.257" y="683.2316">many</text><text fill="#000000" font-family="sans-serif" font-size="13" lengthAdjust="spacing" textLength="8" x="820.2813" y="713.0829">1</text></g><!--link Actions to Document--><g id="link_Actions_Document"><path codeLine="79" d="M485.794,862 C517.881,862 552.844,862 587.771,862 " fill="none" id="Actions-Document" style="stroke:#181818;stroke-width:1.0;"/><polygon fill="#000000" points="512.75,850.5664,503.7049,847.6275,503.7049,853.5053,512.75,850.5664" style="stroke:#000000;stroke-width:1.0;"/><text fill="#000000" font-family="sans-serif" font-size="13" lengthAdjust="spacing" textLength="53" x="516.75" y="855.0669">manage</text></g><!--link UserActions to Actions--><g id="link_UserActions_Actions"><path codeLine="80" d="M124.328,862 C147.589,862 175.411,862 203.322,862 " fill="none" id="UserActions-Actions" style="stroke:#181818;stroke-width:1.0;"/><polygon fill="#000000" points="151.25,850.5664,142.2049,847.6275,142.2049,853.5053,151.25,850.5664" style="stroke:#000000;stroke-width:1.0;"/><text fill="#000000" font-family="sans-serif" font-size="13" lengthAdjust="spacing" textLength="30" x="155.25" y="855.0669">uses</text></g><!--SRC=[hLHDRnCn4BtxLunoY9AcYU1QfP6gj08kK15GZol7EqgCDhl1daqJ5VhR6TjhxowaAaYSrkFt_FpcmolNbenK1AkjtEEJcAggCdbsX2lG9SNmr8HYuccZSLoeghJae4j8op7JtY4jtSaHnp2y1FyPiygXqZaVZl3Pyubsq8PgMG2hhRxNql353UqQtZ0hh-frWUAd4AgGri9dL2JBJU7oUDGvRMCMMzIRBQKa4iybqWR90MJ7ZX_8Jht8A_TsWlpOfvsCLWSqHkTunkTI6-LD6fdhsYQ2c0J4sMfMhtiAPo4BMdzlugx07PR4Be1EUuobWboIv62rauRkoR2fXiborv1ZWOJjNh09GzzS9v2GLDSE-9oamenyERbXYYV_pz1qq_ypwzjArJ7jJ-jlxD4kgvAaBj4m_SRQIcb9c3Rd_fx6zu9FzMPf2hqvWtlf0tvJkjnmZl4wrz6qRhiOjBfzxGsNsae35v3jMJKqLX8hhsj2wxEZUb_WV3QRBNnvtdkvqPcYCFZWb5_0dEq62jOJ-jp9W8VI8DScDh7vTfj_wySZ4jgqT1ufgHCtYZJZJs82GVOZFhQNHK7uiDjNXdhcOEWAabcZMjhTiKFpTGkat59BUjK-_8F_hnPDoe5t_GyHvZ-cq_O_rDqCBqMqpsAma-Lf01UC3TuEueY9vaMzW4RJly6nSA9n1DEqnRwPApS82z7np8oukeBQeeN5Bm00]--></g></svg>